<?xml version="1.0" encoding="UTF-8"?><!DOCTYPE svg PUBLIC "-//W3C//DTD SVG 1.1//EN" "http://www.w3.org/Graphics/SVG/1.1/DTD/svg11.dtd"><svg xmlns="http://www.w3.org/2000/svg" xmlns:xlink="http://www.w3.org/1999/xlink" xmlns:ev="http://www.w3.org/2001/xml-events"><defs>
<path id="symbol0" fill-rule="evenodd" d="M-0 15.39C-0 15.39-0 9.13-0 9.13-0 9.13 6.28 9.13 6.28 9.13 6.28 9.13 6.28 9.82 6.28 9.82 6.28 9.82 10.46 9.82 10.46 9.82 10.46 9.82 10.46 9.13 10.46 9.13 10.46 9.13 16.74 9.13 16.74 9.13 16.74 9.13 16.74 15.39 16.74 15.39 16.74 15.39-0 15.39-0 15.39ZM 10.46 7.74C 10.46 7.74 6.28 7.74 6.28 7.74 6.28 7.74 6.28 8.43 6.28 8.43 6.28 8.43-0 8.43-0 8.43-0 8.43-0 2.17-0 2.17-0 2.17 5.58 2.17 5.58 2.17 5.58 2.17 5.58 0.08 5.58 0.08 5.58 0.08 11.16 0.08 11.16 0.08 11.16 0.08 11.16 2.17 11.16 2.17 11.16 2.17 16.74 2.17 16.74 2.17 16.74 2.17 16.74 8.43 16.74 8.43 16.74 8.43 10.46 8.43 10.46 8.43 10.46 8.43 10.46 7.74 10.46 7.74ZM 10.46 0.78C 10.46 0.78 6.28 0.78 6.28 0.78 6.28 0.78 6.28 2.17 6.28 2.17 6.28 2.17 10.46 2.17 10.46 2.17 10.46 2.17 10.46 0.78 10.46 0.78Z"/>

<path id="symbol0" fill-rule="evenodd" d="M 13.16 5.87C 13.16 5.87 18.39 0.66 18.39 0.66 18.39 0.66 18.39 11.09 18.39 11.09 18.39 11.09 13.16 5.87 13.16 5.87ZM 9.1 7.8C 9.1 7.8 1.67 0.39 1.67 0.39 1.67 0.39 17.68 0.39 17.68 0.39 17.68 0.39 10.25 7.8 10.25 7.8 9.94 8.11 9.41 8.11 9.1 7.8ZM 0.96 11.09C 0.96 11.09 0.96 0.66 0.96 0.66 0.96 0.66 6.18 5.87 6.18 5.87 6.18 5.87 0.96 11.09 0.96 11.09ZM 8.6 8.29C 8.89 8.58 9.27 8.73 9.67 8.73 10.08 8.73 10.46 8.58 10.74 8.29 10.74 8.29 12.67 6.37 12.67 6.37 12.67 6.37 17.84 11.52 17.84 11.52 17.84 11.52 1.51 11.52 1.51 11.52 1.51 11.52 6.67 6.37 6.67 6.37 6.67 6.37 8.6 8.29 8.6 8.29Z"/>

<path id="symbol0" fill-rule="evenodd" d="M 15.31 5.95C 15.31 5.95 12.87 8.39 12.87 8.39 11.97 9.29 10.51 9.29 9.62 8.39 9.62 8.39 10.87 7.13 10.87 7.13 11.26 7.24 11.75 7.07 12.06 6.77 12.06 6.77 13.68 5.14 13.68 5.14 14.13 4.69 14.13 3.96 13.68 3.51 13.68 3.51 12.46 2.29 12.46 2.29 12.01 1.84 11.28 1.84 10.84 2.29 10.84 2.29 9.21 3.92 9.21 3.92 8.89 4.24 8.73 4.7 8.86 5.1 8.86 5.1 7.58 6.36 7.58 6.36 6.68 5.46 6.68 4.01 7.58 3.11 7.58 3.11 10.02 0.67 10.02 0.67 10.92-0.23 12.38-0.23 13.28 0.67 13.28 0.67 15.31 2.7 15.31 2.7 16.21 3.6 16.21 5.06 15.31 5.95ZM 5.34 10.63C 5.01 10.3 5.01 9.75 5.34 9.41 5.34 9.41 9.41 5.34 9.41 5.34 9.75 5.01 10.29 5.01 10.63 5.34 10.97 5.68 10.97 6.23 10.63 6.56 10.63 6.56 6.56 10.63 6.56 10.63 6.23 10.97 5.68 10.97 5.34 10.63ZM 3.92 9.21C 3.92 9.21 2.29 10.84 2.29 10.84 1.84 11.28 1.84 12.01 2.29 12.46 2.29 12.46 3.51 13.68 3.51 13.68 3.96 14.13 4.69 14.13 5.14 13.68 5.14 13.68 6.77 12.06 6.77 12.06 7.07 11.75 7.24 11.26 7.13 10.87 7.13 10.87 8.39 9.62 8.39 9.62 9.29 10.51 9.29 11.97 8.39 12.87 8.39 12.87 5.95 15.31 5.95 15.31 5.06 16.21 3.6 16.21 2.7 15.31 2.7 15.31 0.67 13.28 0.67 13.28-0.23 12.38-0.23 10.92 0.67 10.02 0.67 10.02 3.11 7.58 3.11 7.58 4.01 6.68 5.46 6.68 6.36 7.58 6.36 7.58 5.1 8.86 5.1 8.86 4.7 8.73 4.24 8.89 3.92 9.21Z"/>

<path id="symbol0" fill-rule="evenodd" d="M 15.11 13.19C 15.11 13.19 13.34 12.01 12.55 11.48 12.25 11.28 11.94 11.18 11.64 11.18 11.23 11.18 10.97 11.38 10.91 11.43 10.91 11.43 10.76 11.6 10.44 11.87 10.12 12.14 9.66 12.09 9.29 11.75 8.82 11.31 6.24 8.11 5.43 7.03 5.26 6.81 5.2 6.61 5.23 6.42 5.3 6.03 5.76 5.71 6.01 5.53 6.01 5.53 6.1 5.47 6.1 5.47 6.6 5.11 6.66 4.49 6.49 4.06 6.39 3.78 5.34 1.54 5.21 1.29 5.07 0.99 4.82 0.65 4.24 0.65 3.9 0.65 3.04 0.78 2.48 1.18 2.48 1.18 2.36 1.26 2.36 1.26 1.85 1.61 0.91 2.26 0.91 3.62 0.91 5.34 2.2 7.9 4.84 11.44 7.67 15.23 11.03 17 12.42 17 13.68 17 14.91 15.44 15.31 14.69 15.69 13.97 15.36 13.41 15.11 13.19Z"/>
</defs><symbol id="account" viewBox="0 0 19 21"><g><path fill-rule="evenodd" d="M17.848,16.011 C16.751,15.554 14.146,14.656 12.543,14.184 C12.406,14.141 12.385,14.134 12.385,13.566 C12.385,13.097 12.578,12.624 12.767,12.224 C12.971,11.790 13.213,11.059 13.300,10.404 C13.543,10.122 13.874,9.566 14.087,8.506 C14.273,7.572 14.187,7.232 14.063,6.913 C14.050,6.879 14.036,6.846 14.026,6.813 C13.980,6.594 14.044,5.456 14.204,4.573 C14.315,3.968 14.176,2.680 13.341,1.614 C12.814,0.940 11.805,0.114 9.962,-0.001 L8.951,-0.000 C7.140,0.114 6.130,0.940 5.603,1.614 C4.768,2.680 4.629,3.968 4.739,4.573 C4.900,5.456 4.964,6.594 4.918,6.809 C4.908,6.846 4.895,6.879 4.881,6.913 C4.758,7.232 4.670,7.572 4.857,8.506 C5.069,9.566 5.400,10.122 5.645,10.404 C5.730,11.059 5.973,11.790 6.178,12.224 C6.327,12.542 6.398,12.975 6.398,13.586 C6.398,14.154 6.376,14.161 6.248,14.202 C4.591,14.690 1.953,15.643 0.970,16.073 C0.191,16.407 0.000,17.006 0.000,17.547 C0.000,18.088 0.000,19.691 0.000,20.044 C0.000,20.398 0.211,21.001 0.970,21.001 C1.554,21.001 6.230,21.001 8.353,21.001 C8.990,21.001 9.400,21.001 9.400,21.001 L9.583,21.001 C9.583,21.001 10.000,21.001 10.646,21.001 C12.778,21.001 17.447,21.001 18.030,21.001 C18.789,21.001 19.000,20.398 19.000,20.044 C19.000,19.691 19.000,18.088 19.000,17.547 C19.000,17.006 18.627,16.345 17.848,16.011 ZM17.994,20.002 L10.646,20.002 L9.583,20.002 L9.400,20.002 L8.353,20.002 L1.000,20.002 L1.000,17.547 C1.000,17.244 1.089,17.108 1.371,16.988 C2.318,16.573 4.937,15.630 6.551,15.154 C7.398,14.886 7.398,14.135 7.398,13.586 C7.398,12.824 7.298,12.256 7.082,11.798 C6.918,11.450 6.709,10.825 6.637,10.274 L6.598,9.977 L6.400,9.750 C6.293,9.626 6.024,9.237 5.838,8.309 C5.693,7.587 5.758,7.420 5.809,7.285 C5.838,7.213 5.865,7.141 5.887,7.060 L5.892,7.038 L5.897,7.017 C5.996,6.546 5.861,5.149 5.723,4.394 C5.660,4.047 5.740,3.060 6.391,2.230 C6.789,1.720 7.562,1.096 8.984,0.999 L9.930,0.998 C11.092,1.077 11.975,1.491 12.554,2.230 C13.204,3.060 13.283,4.047 13.221,4.395 C13.080,5.171 12.946,6.544 13.049,7.022 L13.057,7.059 L13.067,7.095 C13.082,7.146 13.101,7.197 13.121,7.249 L13.130,7.273 L13.131,7.274 C13.188,7.420 13.252,7.585 13.106,8.309 C12.920,9.237 12.650,9.627 12.543,9.751 L12.348,9.977 L12.309,10.272 C12.235,10.823 12.025,11.450 11.861,11.799 C11.626,12.299 11.385,12.901 11.385,13.566 C11.385,14.115 11.385,14.867 12.260,15.142 C13.824,15.603 16.401,16.490 17.453,16.929 C17.852,17.100 18.000,17.399 18.000,17.547 L17.994,20.002 Z"/></g></symbol><symbol id="call-frame" viewBox="0 0 24 27"><g><path fill-rule="evenodd" d="M18.949,27.000 C16.667,27.000 11.126,24.084 6.472,17.824 C2.119,11.971 0.001,7.742 0.001,4.896 C0.001,2.655 1.550,1.586 2.382,1.012 L2.585,0.869 C3.503,0.213 4.931,-0.000 5.480,-0.000 C6.441,-0.000 6.845,0.562 7.089,1.052 C7.296,1.462 9.019,5.161 9.197,5.631 C9.466,6.339 9.376,7.370 8.546,7.963 L8.402,8.064 C7.990,8.350 7.226,8.880 7.119,9.524 C7.068,9.838 7.171,10.165 7.439,10.526 C8.773,12.323 13.035,17.604 13.804,18.325 C14.408,18.885 15.169,18.968 15.689,18.529 C16.228,18.075 16.466,17.807 16.468,17.805 C16.570,17.714 16.990,17.381 17.675,17.381 C18.171,17.381 18.675,17.551 19.171,17.888 C20.464,18.761 23.380,20.712 23.380,20.712 C23.800,21.067 24.339,21.988 23.712,23.187 C23.060,24.431 21.039,27.000 18.949,27.000 ZM5.480,1.000 C5.005,1.000 3.841,1.200 3.167,1.682 L2.951,1.834 C2.175,2.370 1.001,3.180 1.001,4.896 C1.001,7.519 3.054,11.553 7.275,17.227 C11.882,23.427 17.152,26.000 18.949,26.000 C20.474,26.000 22.226,23.865 22.826,22.723 C23.216,21.975 22.851,21.576 22.771,21.502 C22.761,21.501 19.892,19.581 18.613,18.716 C18.283,18.494 17.968,18.381 17.675,18.381 C17.380,18.381 17.199,18.497 17.161,18.522 C17.158,18.533 16.884,18.829 16.333,19.294 C15.441,20.044 14.083,19.953 13.123,19.055 C12.253,18.244 7.882,12.802 6.636,11.122 C6.205,10.540 6.035,9.948 6.132,9.361 C6.308,8.299 7.300,7.611 7.832,7.242 L7.966,7.149 C8.443,6.809 8.341,6.193 8.261,5.984 C8.113,5.589 6.410,1.928 6.197,1.501 C6.019,1.147 5.880,1.000 5.480,1.000 Z"/></g></symbol><symbol id="call" viewBox="0 0 18 26"><g><path fill-rule="evenodd" d="M17.636,21.032 C17.636,21.032 15.443,18.879 14.472,17.917 C14.099,17.547 13.695,17.323 13.272,17.252 C12.687,17.153 12.279,17.388 12.178,17.454 C12.176,17.456 11.933,17.659 11.404,17.985 C10.895,18.299 10.258,18.116 9.827,17.532 C9.280,16.781 6.442,11.478 5.575,9.690 C5.401,9.330 5.362,9.025 5.453,8.754 C5.642,8.198 6.373,7.837 6.768,7.643 L6.906,7.574 C7.704,7.167 7.936,6.265 7.813,5.598 C7.732,5.155 6.821,1.622 6.706,1.229 C6.572,0.759 6.312,0.201 5.492,0.062 C5.024,-0.017 3.774,-0.034 2.892,0.417 L2.697,0.514 C1.901,0.904 0.419,1.630 0.080,3.619 C-0.349,6.145 0.819,10.205 3.649,16.029 C6.674,22.258 10.961,25.646 12.907,25.975 C14.689,26.276 16.801,24.288 17.545,23.277 C18.261,22.303 17.940,21.408 17.636,21.032 Z"/></g></symbol><symbol id="cart" viewBox="0 0 27 26"><g><path fill-rule="evenodd" d="M26.995,7.000 L6.315,7.000 L4.645,-0.000 L0.005,-0.000 L0.005,1.000 L3.871,1.000 L8.669,21.110 C7.645,21.413 6.894,22.361 6.894,23.500 C6.894,24.880 7.995,26.000 9.354,26.000 C10.713,26.000 11.814,24.880 11.814,23.500 C11.814,22.934 11.623,22.419 11.311,22.000 L18.221,22.000 C17.909,22.419 17.718,22.934 17.718,23.500 C17.718,24.880 18.819,26.000 20.178,26.000 C21.537,26.000 22.638,24.880 22.638,23.500 C22.638,22.118 21.537,21.000 20.178,21.000 L9.655,21.000 L9.177,19.000 L22.991,19.000 L26.995,7.000 ZM10.830,23.500 C10.830,24.327 10.168,25.000 9.354,25.000 C8.540,25.000 7.878,24.327 7.878,23.500 C7.878,22.673 8.540,22.000 9.354,22.000 C10.168,22.000 10.830,22.673 10.830,23.500 ZM21.654,23.500 C21.654,24.327 20.992,25.000 20.178,25.000 C19.364,25.000 18.702,24.327 18.702,23.500 C18.702,22.673 19.364,22.000 20.178,22.000 C20.992,22.000 21.654,22.673 21.654,23.500 ZM8.938,18.000 L6.553,8.000 L25.622,8.000 L22.286,18.000 L8.938,18.000 Z"/></g></symbol><symbol id="chevron-down" viewBox="0 0 13 9"><g><path fill-rule="evenodd" d="M13.001,1.988 L6.501,8.999 L0.000,1.988 L1.844,-0.001 L6.501,5.021 L11.157,-0.001 L13.001,1.988 Z"/></g></symbol><symbol id="chevron-left" viewBox="0 0 9 13"><g><path fill-rule="evenodd" d="M7.012,13.001 L0.001,6.501 L7.012,0.001 L9.001,1.845 L3.978,6.501 L9.001,11.157 L7.012,13.001 Z"/></g></symbol><symbol id="chevron-right" viewBox="0 0 9 13"><g><path fill-rule="evenodd" d="M1.988,-0.001 L8.999,6.499 L1.988,13.000 L-0.001,11.156 L5.021,6.499 L-0.001,1.843 L1.988,-0.001 Z"/></g></symbol><symbol id="clock" viewBox="0 0 27 27"><g><path fill-rule="evenodd" d="M13.500,27.000 C6.045,27.000 -0.000,20.955 -0.000,13.500 C-0.000,6.045 6.045,-0.000 13.500,-0.000 C20.955,-0.000 27.000,6.045 27.000,13.500 C27.000,20.955 20.955,27.000 13.500,27.000 ZM13.500,1.125 C6.676,1.125 1.125,6.676 1.125,13.500 C1.125,20.323 6.676,25.875 13.500,25.875 C20.324,25.875 25.875,20.323 25.875,13.500 C25.875,6.676 20.324,1.125 13.500,1.125 ZM6.750,14.625 L13.500,14.625 L13.500,4.546 L14.625,4.546 L14.625,15.750 L6.750,15.750 L6.750,14.625 Z"/></g></symbol><symbol id="contact-letter">
</symbol><symbol id="contact-phone">
</symbol><symbol id="contact-pin">
<path fill-rule="evenodd" d="M 14.51 1.61C 21.49 1.61 27.17 7.05 27.17 13.73 27.17 15.85 26.58 17.95 25.47 19.79 25.47 19.79 14.51 37.97 14.51 37.97 14.51 37.97 3.55 19.79 3.55 19.79 2.44 17.95 1.85 15.85 1.85 13.73 1.85 7.05 7.53 1.61 14.51 1.61M 14.51 18.44C 17.23 18.44 19.44 16.33 19.44 13.73 19.44 11.13 17.23 9.02 14.51 9.02 11.8 9.02 9.59 11.13 9.59 13.73 9.59 16.33 11.8 18.44 14.51 18.44M 14.51 0.26C 6.74 0.26 0.45 6.29 0.45 13.73 0.45 16.18 1.14 18.48 2.34 20.46 2.34 20.46 14.51 40.66 14.51 40.66 14.51 40.66 26.69 20.46 26.69 20.46 27.89 18.48 28.58 16.18 28.58 13.73 28.58 6.29 22.28 0.26 14.51 0.26 14.51 0.26 14.51 0.26 14.51 0.26ZM 14.51 17.09C 12.57 17.09 11 15.59 11 13.73 11 11.87 12.57 10.36 14.51 10.36 16.46 10.36 18.03 11.87 18.03 13.73 18.03 15.59 16.46 17.09 14.51 17.09 14.51 17.09 14.51 17.09 14.51 17.09Z"/>
</symbol><symbol id="external" viewBox="0 0 17 17"><g><path fill-rule="evenodd" d="M9.783,15.108 L13.079,15.108 L13.079,11.388 L13.079,11.350 L14.999,11.350 L14.999,11.388 L14.999,15.134 C14.999,15.647 14.787,16.112 14.444,16.449 C14.101,16.785 13.627,16.995 13.106,16.995 L9.783,16.995 L9.783,15.108 L9.783,15.108 ZM9.783,8.302 L9.783,5.635 L13.590,1.895 L9.783,1.895 L9.783,0.009 L16.044,0.009 C16.574,0.009 17.004,0.432 17.004,0.952 L17.004,8.485 L15.084,8.485 L15.084,3.094 L9.783,8.302 ZM1.899,1.882 L5.440,1.882 L5.440,3.768 L1.925,3.768 L1.925,15.108 L9.783,15.108 L9.783,16.995 L1.899,16.995 C1.377,16.995 0.903,16.785 0.560,16.449 C0.218,16.112 0.005,15.647 0.005,15.134 L0.005,3.743 C0.005,3.230 0.218,2.765 0.560,2.428 C0.903,2.091 1.377,1.882 1.899,1.882 L1.899,1.882 ZM9.783,0.009 L8.280,0.009 L8.280,1.895 L9.783,1.895 L9.783,0.009 L9.783,0.009 ZM9.783,5.635 L4.567,10.760 L5.924,12.093 L9.783,8.302 L9.783,5.635 Z"/></g></symbol><symbol id="globe" viewBox="0 0 27 27"><g><path fill-rule="evenodd" d="M13.500,-0.000 C13.497,-0.000 13.493,-0.000 13.488,-0.000 C13.486,-0.000 13.485,-0.000 13.483,-0.000 C13.478,-0.000 13.472,0.001 13.467,0.001 C6.025,0.018 -0.000,6.055 -0.000,13.499 C-0.000,20.944 6.025,26.981 13.467,26.998 C13.472,26.998 13.478,27.000 13.483,27.000 C13.485,27.000 13.486,27.000 13.488,27.000 C13.493,27.000 13.497,27.000 13.500,27.000 C20.954,27.000 27.000,20.954 27.000,13.499 C27.000,6.044 20.954,-0.000 13.500,-0.000 ZM14.040,8.079 C15.471,8.040 16.863,7.851 18.205,7.524 C18.610,9.115 18.860,10.949 18.899,12.959 L14.040,12.959 L14.040,8.079 ZM14.040,6.998 L14.040,1.165 C15.496,1.568 16.971,3.510 17.911,6.485 C16.663,6.785 15.370,6.961 14.040,6.998 ZM12.960,1.152 L12.960,6.998 C11.619,6.961 10.315,6.782 9.059,6.477 C10.006,3.482 11.495,1.534 12.960,1.152 ZM12.960,8.079 L12.960,12.959 L8.067,12.959 C8.106,10.947 8.358,9.110 8.762,7.517 C10.113,7.847 11.517,8.039 12.960,8.079 ZM6.980,12.959 L1.094,12.959 C1.213,10.184 2.247,7.640 3.903,5.625 C5.106,6.288 6.381,6.830 7.717,7.234 C7.280,8.958 7.019,10.899 6.980,12.959 ZM6.980,14.040 C7.019,16.100 7.280,18.041 7.717,19.763 C6.382,20.169 5.106,20.711 3.903,21.374 C2.247,19.359 1.213,16.816 1.094,14.040 L6.980,14.040 ZM8.067,14.040 L12.960,14.040 L12.960,18.916 C11.517,18.955 10.113,19.146 8.761,19.478 C8.357,17.886 8.106,16.051 8.067,14.040 ZM12.960,19.994 L12.960,25.847 C11.493,25.464 10.004,23.514 9.057,20.516 C10.314,20.211 11.619,20.032 12.960,19.994 ZM14.040,25.834 L14.040,19.994 C15.370,20.032 16.664,20.208 17.912,20.509 C16.972,23.487 15.496,25.431 14.040,25.834 ZM14.040,18.916 L14.040,14.040 L18.899,14.040 C18.860,16.048 18.610,17.881 18.207,19.470 C16.864,19.144 15.471,18.955 14.040,18.916 ZM19.986,14.040 L25.906,14.040 C25.787,16.816 24.753,19.359 23.097,21.374 C21.886,20.706 20.599,20.160 19.251,19.754 C19.686,18.032 19.947,16.096 19.986,14.040 ZM19.986,12.959 C19.947,10.901 19.686,8.962 19.250,7.241 C20.597,6.834 21.884,6.289 23.094,5.622 C24.752,7.638 25.786,10.181 25.906,12.959 L19.986,12.959 ZM22.350,4.797 C21.276,5.370 20.141,5.841 18.958,6.200 C18.326,4.169 17.439,2.512 16.392,1.423 C18.691,1.974 20.744,3.163 22.350,4.797 ZM10.565,1.433 C9.523,2.520 8.641,4.170 8.011,6.191 C6.838,5.833 5.714,5.365 4.650,4.797 C6.245,3.174 8.282,1.988 10.565,1.433 ZM4.646,22.198 C5.711,21.629 6.836,21.161 8.010,20.803 C8.639,22.827 9.522,24.479 10.565,25.566 C8.281,25.011 6.243,23.823 4.646,22.198 ZM16.391,25.576 C17.441,24.487 18.327,22.829 18.959,20.794 C20.143,21.153 21.278,21.625 22.354,22.198 C20.747,23.833 18.692,25.025 16.391,25.576 Z"/></g></symbol><symbol id="grid" viewBox="0 0 42 27"><g><path fill-rule="evenodd" d="M38.350,26.930 L32.701,26.930 C30.735,26.930 29.135,25.376 29.135,23.464 L29.135,18.006 C29.135,16.095 30.735,14.541 32.701,14.541 L38.350,14.541 C40.316,14.541 41.915,16.095 41.915,18.006 L41.915,23.464 C41.915,25.376 40.316,26.930 38.350,26.930 ZM40.433,18.006 C40.433,16.908 39.498,16.015 38.350,16.015 L32.701,16.015 C31.553,16.015 30.618,16.908 30.618,18.006 L30.618,23.464 C30.618,24.563 31.553,25.457 32.701,25.457 L38.350,25.457 C39.498,25.457 40.433,24.563 40.433,23.464 L40.433,18.006 ZM38.350,13.285 L32.701,13.285 C30.735,13.285 29.135,11.731 29.135,9.820 L29.135,4.361 C29.135,2.450 30.735,0.895 32.701,0.895 L38.350,0.895 C40.316,0.895 41.915,2.450 41.915,4.361 L41.915,9.820 C41.915,11.731 40.316,13.285 38.350,13.285 ZM40.433,4.361 C40.433,3.263 39.498,2.369 38.350,2.369 L32.701,2.369 C31.553,2.369 30.618,3.263 30.618,4.361 L30.618,9.820 C30.618,10.918 31.553,11.812 32.701,11.812 L38.350,11.812 C39.498,11.812 40.433,10.918 40.433,9.820 L40.433,4.361 ZM24.228,26.930 L18.579,26.930 C16.614,26.930 15.014,25.376 15.014,23.464 L15.014,18.006 C15.014,16.095 16.614,14.541 18.579,14.541 L24.228,14.541 C26.194,14.541 27.794,16.095 27.794,18.006 L27.794,23.464 C27.794,25.376 26.194,26.930 24.228,26.930 ZM26.311,18.006 C26.311,16.908 25.377,16.015 24.228,16.015 L18.579,16.015 C17.431,16.015 16.497,16.908 16.497,18.006 L16.497,23.464 C16.497,24.563 17.431,25.457 18.579,25.457 L24.228,25.457 C25.377,25.457 26.311,24.563 26.311,23.464 L26.311,18.006 ZM24.228,13.285 L18.579,13.285 C16.614,13.285 15.014,11.731 15.014,9.820 L15.014,4.361 C15.014,2.450 16.614,0.895 18.579,0.895 L24.228,0.895 C26.194,0.895 27.794,2.450 27.794,4.361 L27.794,9.820 C27.794,11.731 26.194,13.285 24.228,13.285 ZM26.311,4.361 C26.311,3.263 25.377,2.369 24.228,2.369 L18.579,2.369 C17.431,2.369 16.497,3.263 16.497,4.361 L16.497,9.820 C16.497,10.918 17.431,11.812 18.579,11.812 L24.228,11.812 C25.377,11.812 26.311,10.918 26.311,9.820 L26.311,4.361 ZM10.107,26.930 L4.458,26.930 C2.492,26.930 0.892,25.376 0.892,23.464 L0.892,18.006 C0.892,16.095 2.492,14.541 4.458,14.541 L10.107,14.541 C12.073,14.541 13.672,16.095 13.672,18.006 L13.672,23.464 C13.672,25.376 12.073,26.930 10.107,26.930 ZM12.190,18.006 C12.190,16.908 11.255,16.015 10.107,16.015 L4.458,16.015 C3.309,16.015 2.375,16.908 2.375,18.006 L2.375,23.464 C2.375,24.563 3.309,25.457 4.458,25.457 L10.107,25.457 C11.255,25.457 12.190,24.563 12.190,23.464 L12.190,18.006 ZM10.107,13.285 L4.458,13.285 C2.492,13.285 0.892,11.731 0.892,9.820 L0.892,4.361 C0.892,2.450 2.492,0.895 4.458,0.895 L10.107,0.895 C12.073,0.895 13.672,2.450 13.672,4.361 L13.672,9.820 C13.672,11.731 12.073,13.285 10.107,13.285 ZM12.190,4.361 C12.190,3.263 11.255,2.369 10.107,2.369 L4.458,2.369 C3.309,2.369 2.375,3.263 2.375,4.361 L2.375,9.820 C2.375,10.918 3.309,11.812 4.458,11.812 L10.107,11.812 C11.255,11.812 12.190,10.918 12.190,9.820 L12.190,4.361 Z"/></g></symbol><symbol id="input-briefcase">

<g>
<use xlink:href="#symbol0"/>
<use xlink:href="#symbol0"/>
</g>
</symbol><symbol id="input-letter">

<g>
<use xlink:href="#symbol0"/>
<use xlink:href="#symbol0"/>
</g>
</symbol><symbol id="input-link">

<g>
<use xlink:href="#symbol0"/>
<use xlink:href="#symbol0"/>
</g>
</symbol><symbol id="input-phone">

<g>
<use xlink:href="#symbol0"/>
<use xlink:href="#symbol0"/>
</g>
</symbol><symbol id="location" viewBox="0 0 19 28"><g><path fill-rule="evenodd" d="M9.500,0.932 C14.215,0.932 18.050,4.701 18.050,9.333 C18.050,10.806 17.653,12.257 16.901,13.533 L9.500,26.133 L2.098,13.532 C1.347,12.257 0.950,10.806 0.950,9.333 C0.950,4.701 4.786,0.932 9.500,0.932 M9.500,12.599 C11.334,12.599 12.825,11.134 12.825,9.333 C12.825,7.532 11.334,6.067 9.500,6.067 C7.667,6.067 6.175,7.532 6.175,9.333 C6.175,11.134 7.667,12.599 9.500,12.599 M9.500,-0.001 C4.254,-0.001 -0.000,4.179 -0.000,9.333 C-0.000,11.035 0.466,12.626 1.276,14.000 L9.500,28.000 L17.724,14.000 C18.534,12.626 19.000,11.035 19.000,9.333 C19.000,4.179 14.746,-0.001 9.500,-0.001 L9.500,-0.001 ZM9.500,11.666 C8.189,11.666 7.125,10.622 7.125,9.333 C7.125,8.045 8.189,7.000 9.500,7.000 C10.812,7.000 11.875,8.045 11.875,9.333 C11.875,10.622 10.812,11.666 9.500,11.666 L9.500,11.666 Z"/></g></symbol><symbol id="mail-frame" viewBox="0 0 71 46"><g><path fill-rule="evenodd" d="M67.906,0.767 L2.875,0.767 L2.311,0.767 L0.610,0.767 L-0.001,0.767 L-0.001,45.668 L70.787,45.668 L70.787,0.767 L68.337,0.767 L67.906,0.767 ZM65.074,3.572 L37.727,30.678 C36.483,31.913 34.303,31.913 33.059,30.678 L5.706,3.572 L65.074,3.572 ZM2.831,4.690 L21.216,22.909 L2.831,41.131 L2.831,4.690 ZM5.087,42.863 L23.221,24.895 L31.057,32.662 C32.213,33.810 33.756,34.444 35.393,34.444 C37.030,34.444 38.573,33.810 39.729,32.662 L47.565,24.895 L65.693,42.863 L5.087,42.863 ZM67.955,41.136 L49.567,22.910 L67.955,4.685 L67.955,41.136 Z"/></g></symbol><symbol id="map">
<path fill-rule="evenodd" d="M 33.26 32.77C 33.26 32.77 26.61 28.96 26.61 28.96 26.61 28.96 26.61 15.46 26.61 15.46 30.36 14.91 33.24 11.69 33.24 7.78 33.24 3.48 29.76-0 25.47-0 21.19-0 17.71 3.48 17.71 7.78 17.71 11.7 20.62 14.94 24.39 15.47 24.39 15.47 24.39 27.69 24.39 27.69 24.39 27.69 17.74 23.88 17.74 23.88 17.74 23.88-0 31.11-0 31.11-0 31.11-0 58.33-0 58.33-0 58.33 17.74 51.11 17.74 51.11 17.74 51.11 33.26 60 33.26 60 33.26 60 51 51.11 51 51.11 51 51.11 51 23.88 51 23.88 51 23.88 33.26 32.77 33.26 32.77ZM 15.52 49.61C 15.52 49.61 2.22 55.03 2.22 55.03 2.22 55.03 2.22 32.61 2.22 32.61 2.22 32.61 15.52 27.19 15.52 27.19 15.52 27.19 15.52 49.61 15.52 49.61ZM 19.93 7.78C 19.93 4.71 22.42 2.22 25.47 2.22 28.53 2.22 31.02 4.71 31.02 7.78 31.02 10.84 28.53 13.33 25.47 13.33 22.42 13.33 19.93 10.84 19.93 7.78ZM 33.26 57.51C 33.26 57.51 17.74 48.62 17.74 48.62 17.74 48.62 17.74 26.37 17.74 26.37 17.74 26.37 24.39 30.18 24.39 30.18 24.39 30.18 24.39 40 24.39 40 24.39 40 26.61 40 26.61 40 26.61 40 26.61 31.45 26.61 31.45 26.61 31.45 33.26 35.26 33.26 35.26 33.26 35.26 33.26 57.51 33.26 57.51ZM 48.78 49.74C 48.78 49.74 35.48 56.4 35.48 56.4 35.48 56.4 35.48 34.15 35.48 34.15 35.48 34.15 48.78 27.48 48.78 27.48 48.78 27.48 48.78 49.74 48.78 49.74Z"/>
</symbol><symbol id="menu-dots">
<path fill-rule="evenodd" d="M 8 9C 8 9 8 8 8 8 8 8 9 8 9 8 9 8 9 9 9 9 9 9 8 9 8 9ZM 8 4C 8 4 9 4 9 4 9 4 9 5 9 5 9 5 8 5 8 5 8 5 8 4 8 4ZM 8-0C 8-0 9-0 9-0 9-0 9 1 9 1 9 1 8 1 8 1 8 1 8-0 8-0ZM 4 8C 4 8 5 8 5 8 5 8 5 9 5 9 5 9 4 9 4 9 4 9 4 8 4 8ZM 4 4C 4 4 5 4 5 4 5 4 5 5 5 5 5 5 4 5 4 5 4 5 4 4 4 4ZM 4-0C 4-0 5-0 5-0 5-0 5 1 5 1 5 1 4 1 4 1 4 1 4-0 4-0ZM-0 8C-0 8 1 8 1 8 1 8 1 9 1 9 1 9-0 9-0 9-0 9-0 8-0 8ZM-0 4C-0 4 1 4 1 4 1 4 1 5 1 5 1 5-0 5-0 5-0 5-0 4-0 4ZM-0-0C-0-0 1-0 1-0 1-0 1 1 1 1 1 1-0 1-0 1-0 1-0-0-0-0Z"/>
</symbol><symbol id="menu-phone">
<path fill-rule="evenodd" d="M 12.83 27.31C 10.71 26.75 6.26 22.87 3.39 16.34 0.7 10.23-0.28 6.08 0.37 3.63 0.89 1.71 2.57 1.18 3.47 0.89 3.47 0.89 3.69 0.82 3.69 0.82 4.69 0.48 6.06 0.65 6.57 0.79 7.46 1.03 7.7 1.61 7.82 2.09 7.92 2.5 8.66 6.1 8.72 6.55 8.8 7.22 8.48 8.08 7.58 8.39 7.58 8.39 7.42 8.44 7.42 8.44 6.97 8.58 6.14 8.85 5.9 9.37 5.78 9.63 5.8 9.94 5.96 10.31 6.78 12.19 9.51 17.78 10.06 18.59 10.49 19.22 11.18 19.48 11.76 19.23 12.36 18.98 12.64 18.8 12.65 18.8 12.76 18.75 13.23 18.57 13.86 18.74 14.32 18.86 14.75 19.13 15.13 19.54 16.12 20.61 18.38 23.01 18.38 23.01 18.68 23.42 18.97 24.35 18.11 25.22 17.22 26.13 14.76 27.83 12.83 27.31ZM 6.34 1.65C 5.9 1.53 4.78 1.41 4.04 1.66 4.04 1.66 3.81 1.74 3.81 1.74 2.97 2.01 1.69 2.41 1.3 3.88 0.69 6.14 1.67 10.11 4.27 16.03 7.11 22.49 11.39 26.01 13.06 26.45 14.47 26.83 16.58 25.43 17.4 24.6 17.93 24.06 17.69 23.62 17.63 23.54 17.62 23.54 15.41 21.18 14.42 20.12 14.17 19.84 13.9 19.67 13.63 19.6 13.36 19.52 13.16 19.58 13.12 19.59 13.12 19.6 12.8 19.79 12.18 20.05 11.18 20.47 9.94 20.06 9.26 19.05 8.64 18.13 5.85 12.38 5.08 10.63 4.82 10.02 4.8 9.47 5.02 8.99 5.43 8.12 6.5 7.78 7.08 7.59 7.08 7.59 7.23 7.54 7.23 7.54 7.75 7.37 7.79 6.82 7.77 6.62 7.72 6.24 6.99 2.68 6.89 2.26 6.81 1.91 6.71 1.75 6.34 1.65Z"/>
</symbol><symbol id="menu-share">
<path fill-rule="evenodd" d="M 22.15-0C 20.02-0 18.3 1.65 18.3 3.69 18.3 4.05 18.35 4.39 18.45 4.71 18.45 4.71 7.19 9.23 7.19 9.23 6.52 8.13 5.28 7.38 3.85 7.38 1.73 7.38-0 9.04-0 11.08-0 13.11 1.73 14.77 3.85 14.77 4.97 14.77 5.97 14.31 6.67 13.59 6.67 13.59 13.93 18.58 13.93 18.58 13.64 19.1 13.48 19.68 13.48 20.31 13.48 22.35 15.21 24 17.33 24 19.46 24 21.19 22.35 21.19 20.31 21.19 18.27 19.46 16.61 17.33 16.61 16.2 16.61 15.19 17.09 14.48 17.83 14.48 17.83 7.24 12.84 7.24 12.84 7.53 12.31 7.7 11.71 7.7 11.08 7.7 10.73 7.65 10.4 7.56 10.09 7.56 10.09 18.83 5.56 18.83 5.56 19.5 6.65 20.73 7.38 22.15 7.38 24.28 7.38 26 5.73 26 3.69 26 1.65 24.28-0 22.15-0ZM 17.33 17.54C 18.93 17.54 20.22 18.78 20.22 20.31 20.22 21.83 18.93 23.08 17.33 23.08 15.74 23.08 14.44 21.83 14.44 20.31 14.44 18.78 15.74 17.54 17.33 17.54ZM 3.85 13.84C 2.26 13.84 0.96 12.6 0.96 11.08 0.96 9.55 2.26 8.31 3.85 8.31 5.44 8.31 6.74 9.55 6.74 11.08 6.74 12.6 5.44 13.84 3.85 13.84ZM 22.15 6.46C 20.55 6.46 19.26 5.22 19.26 3.69 19.26 2.16 20.55 0.92 22.15 0.92 23.74 0.92 25.04 2.16 25.04 3.69 25.04 5.22 23.74 6.46 22.15 6.46Z"/>
</symbol><symbol id="menu" viewBox="0 0 22 13"><g><path fill-rule="evenodd" d="M18.000,13.000 L18.000,8.000 L22.000,8.000 L22.000,13.000 L18.000,13.000 ZM18.000,-0.000 L22.000,-0.000 L22.000,6.000 L18.000,6.000 L18.000,-0.000 ZM-0.000,-0.000 L16.000,-0.000 L16.000,13.000 L-0.000,13.000 L-0.000,-0.000 Z"/></g></symbol><symbol id="search" viewBox="0 0 24 24"><g><path fill-rule="evenodd" d="M23.996,22.739 L17.077,15.820 C18.468,14.147 19.305,11.999 19.305,9.654 C19.305,4.324 14.984,0.003 9.654,0.003 C4.325,0.003 0.003,4.324 0.003,9.654 C0.003,14.983 4.325,19.305 9.654,19.305 C11.999,19.305 14.147,18.467 15.820,17.077 L22.739,23.996 L23.996,22.739 ZM1.019,9.654 C1.019,4.892 4.892,1.019 9.654,1.019 C14.415,1.019 18.289,4.892 18.289,9.654 C18.289,14.415 14.415,18.289 9.654,18.289 C4.892,18.289 1.019,14.415 1.019,9.654 Z"/></g></symbol><symbol id="share" viewBox="0 0 54 52"><g><path fill-rule="evenodd" d="M46.000,-0.000 C41.582,-0.000 38.000,3.583 38.000,8.000 C38.000,8.767 38.114,9.507 38.315,10.209 L14.928,20.012 C13.545,17.616 10.963,16.000 8.000,16.000 C3.583,16.000 -0.000,19.583 -0.000,24.000 C-0.000,28.418 3.583,32.000 8.000,32.000 C10.314,32.000 12.395,31.011 13.855,29.438 L28.926,40.269 C28.337,41.384 28.000,42.651 28.000,43.999 C28.000,48.418 31.583,52.000 36.000,52.000 C40.417,52.000 44.000,48.418 44.000,43.999 C44.000,39.582 40.417,36.000 36.000,36.000 C33.650,36.000 31.543,37.020 30.079,38.634 L15.029,27.820 C15.648,26.684 16.000,25.384 16.000,24.000 C16.000,23.257 15.891,22.540 15.701,21.856 L39.106,12.046 C40.496,14.409 43.060,16.001 46.000,16.001 C50.418,16.001 54.000,12.419 54.000,8.000 C54.000,3.583 50.418,-0.000 46.000,-0.000 Z"/></g></symbol><symbol id="smile" viewBox="0 0 24 24"><g><path fill-rule="evenodd" d="M11.998,24.000 C5.371,24.000 -0.000,18.627 -0.000,12.000 C-0.000,5.373 5.371,-0.000 11.998,-0.000 C18.627,-0.000 24.000,5.373 24.000,12.000 C24.000,18.627 18.627,24.000 11.998,24.000 ZM11.998,1.000 C5.934,1.000 1.000,5.935 1.000,12.000 C1.000,18.065 5.934,23.000 11.998,23.000 C18.064,23.000 23.000,18.065 23.000,12.000 C23.000,5.935 18.064,1.000 11.998,1.000 ZM11.998,18.987 C9.236,18.987 6.750,17.451 5.513,14.978 C5.389,14.733 5.489,14.432 5.736,14.309 C5.983,14.186 6.283,14.284 6.407,14.531 C7.475,16.663 9.617,17.987 11.998,17.987 C14.370,17.987 16.509,16.672 17.580,14.555 C17.706,14.309 18.006,14.209 18.252,14.334 C18.499,14.459 18.598,14.760 18.473,15.006 C17.230,17.462 14.749,18.987 11.998,18.987 ZM15.508,11.016 C14.675,11.016 14.000,10.341 14.000,9.508 C14.000,8.675 14.675,8.000 15.508,8.000 C16.340,8.000 17.016,8.675 17.016,9.508 C17.016,10.341 16.340,11.016 15.508,11.016 ZM8.491,11.016 C7.658,11.016 6.983,10.341 6.983,9.508 C6.983,8.675 7.658,8.000 8.491,8.000 C9.324,8.000 10.000,8.675 10.000,9.508 C10.000,10.341 9.324,11.016 8.491,11.016 Z"/></g></symbol><symbol id="social-email" viewBox="0 0 18 13"><filter id="Filter_0">  <feFlood flood-color="rgb( 255, 255, 255 )" flood-opacity="1" result="floodOut"/>  <feComposite operator="atop" in="floodOut" in2="SourceGraphic" result="compOut"/>  <feBlend mode="normal" in="compOut" in2="SourceGraphic"/></filter><g><g filter="url(#Filter_0)"><path fill-rule="evenodd" d="M12.797,6.449 L18.000,1.162 L18.000,11.738 L12.797,6.449 ZM8.746,8.403 L1.345,0.882 L17.293,0.882 L9.892,8.403 C9.586,8.714 9.053,8.714 8.746,8.403 ZM0.636,11.740 L0.636,1.159 L5.842,6.449 L0.636,11.740 ZM8.255,8.902 C8.539,9.191 8.917,9.350 9.319,9.350 C9.721,9.350 10.099,9.191 10.383,8.902 L12.306,6.949 L17.449,12.176 L1.189,12.176 L6.333,6.950 L8.255,8.902 Z"/></g></g></symbol><symbol id="social-facebook" viewBox="0 0 8 16"><g><path fill-rule="evenodd" d="M6.903,8.006 L4.764,8.006 C4.764,11.589 4.764,16.000 4.764,16.000 L1.595,16.000 C1.595,16.000 1.595,11.633 1.595,8.006 L0.088,8.006 L0.088,5.182 L1.595,5.182 L1.595,3.354 C1.595,2.046 2.187,-0.000 4.793,-0.000 L7.140,0.010 L7.140,2.752 C7.140,2.752 5.713,2.752 5.436,2.752 C5.159,2.752 4.764,2.897 4.764,3.521 L4.764,5.182 L7.180,5.182 L6.903,8.006 Z"/></g></symbol><symbol id="social-google" viewBox="0 0 16 16"><g><path fill-rule="evenodd" d="M13.822,3.482 L13.822,5.656 L12.733,5.656 L12.733,3.482 L10.557,3.482 L10.557,2.394 L12.733,2.394 L12.733,0.218 L13.822,0.218 L13.822,2.394 L15.999,2.394 L15.999,3.482 L13.822,3.482 ZM7.885,1.106 C8.759,1.606 9.223,2.637 9.223,3.773 C9.223,4.816 8.646,5.655 7.830,6.293 C7.032,6.915 6.882,7.176 6.882,7.704 C6.882,8.156 7.834,8.828 8.272,9.156 C9.795,10.299 10.104,11.017 10.104,12.445 C10.104,14.228 8.182,16.000 5.057,16.000 C2.315,16.000 0.001,14.887 0.001,13.103 C0.001,11.295 1.920,9.408 4.662,9.408 C4.961,9.408 5.234,9.400 5.518,9.400 C5.143,9.036 4.840,8.722 4.840,8.171 C4.840,7.844 4.943,7.531 5.090,7.251 C4.941,7.262 4.789,7.271 4.633,7.271 C2.380,7.271 1.069,5.690 1.069,3.706 C1.069,1.765 3.065,0.000 5.459,0.000 C6.693,0.000 10.178,0.000 10.178,0.000 L9.124,1.106 L7.885,1.106 ZM5.283,9.967 C3.388,9.945 1.782,11.162 1.782,12.574 C1.782,14.014 3.151,15.213 5.046,15.213 C7.711,15.213 8.639,14.088 8.639,12.646 C8.639,12.472 8.618,12.303 8.578,12.139 C8.369,11.324 7.541,10.877 6.511,10.162 C6.137,10.041 5.725,9.970 5.283,9.967 ZM7.328,3.844 C7.109,2.175 6.020,0.806 4.749,0.767 C3.477,0.730 2.623,2.007 2.844,3.676 C3.063,5.345 4.272,6.511 5.544,6.550 C6.816,6.587 7.547,5.513 7.328,3.844 Z"/></g></symbol><symbol id="social-instagram" viewBox="0 0 16 16"><g><path fill-rule="evenodd" d="M14.154,6.768 L12.761,6.768 C12.863,7.162 12.923,7.574 12.923,8.000 C12.923,10.719 10.719,12.923 8.000,12.923 C5.281,12.923 3.077,10.719 3.077,8.000 C3.077,7.574 3.137,7.162 3.238,6.768 L1.845,6.768 L1.845,13.538 C1.845,13.878 2.121,14.153 2.461,14.153 L13.538,14.153 C13.878,14.153 14.154,13.878 14.154,13.538 L14.154,6.768 ZM14.154,2.461 C14.154,2.121 13.878,1.845 13.538,1.845 L11.692,1.845 C11.352,1.845 11.077,2.121 11.077,2.461 L11.077,4.307 C11.077,4.647 11.352,4.923 11.692,4.923 L13.538,4.923 C13.878,4.923 14.154,4.647 14.154,4.307 L14.154,2.461 ZM8.000,4.923 C6.300,4.923 4.923,6.300 4.923,8.000 C4.923,9.699 6.300,11.077 8.000,11.077 C9.699,11.077 11.077,9.699 11.077,8.000 C11.077,6.300 9.699,4.923 8.000,4.923 M14.154,16.000 L1.845,16.000 C0.826,16.000 -0.001,15.173 -0.001,14.153 L-0.001,1.845 C-0.001,0.826 0.826,-0.000 1.845,-0.000 L14.154,-0.000 C15.174,-0.000 16.000,0.826 16.000,1.845 L16.000,14.153 C16.000,15.173 15.174,16.000 14.154,16.000 "/></g></symbol><symbol id="social-linkedin" viewBox="0 0 18 17"><g><path fill-rule="evenodd" d="M13.373,16.834 L13.373,11.245 C13.373,10.845 13.373,10.459 13.373,10.088 C13.373,9.701 13.317,9.361 13.206,9.063 C13.095,8.767 12.909,8.525 12.649,8.339 C12.390,8.154 12.000,8.061 11.480,8.061 C11.124,8.061 10.816,8.132 10.556,8.273 C10.297,8.414 10.085,8.600 9.922,8.829 C9.758,9.060 9.636,9.323 9.554,9.620 C9.473,9.917 9.432,10.221 9.432,10.533 L9.432,16.834 L5.647,16.834 L5.647,5.278 L9.321,5.278 L9.321,6.859 L9.365,6.859 C9.543,6.562 9.766,6.295 10.033,6.057 C10.300,5.820 10.597,5.620 10.924,5.456 C11.250,5.293 11.592,5.166 11.948,5.078 C12.304,4.989 12.653,4.944 12.995,4.944 C13.959,4.944 14.720,5.100 15.277,5.411 C15.833,5.724 16.249,6.106 16.524,6.558 C16.798,7.011 16.973,7.497 17.047,8.017 C17.121,8.537 17.158,9.004 17.158,9.420 L17.158,16.834 L13.373,16.834 ZM0.303,5.278 L4.088,5.278 L4.088,16.834 L0.303,16.834 L0.303,5.278 ZM0.303,0.936 L4.088,0.936 L4.088,3.830 L0.303,3.830 L0.303,0.936 Z"/></g></symbol><symbol id="social-twitter" viewBox="0 0 16 13"><g><path fill-rule="evenodd" d="M14.362,3.238 C14.369,3.378 14.372,3.519 14.372,3.662 C14.372,7.999 11.070,13.000 5.032,13.000 C3.178,13.000 1.453,12.457 -0.000,11.526 C0.258,11.556 0.519,11.571 0.783,11.571 C2.322,11.571 3.736,11.047 4.859,10.167 C3.424,10.140 2.211,9.191 1.794,7.888 C1.994,7.926 2.199,7.946 2.411,7.946 C2.711,7.946 3.001,7.906 3.275,7.831 C1.775,7.529 0.643,6.202 0.643,4.613 C0.643,4.599 0.643,4.585 0.643,4.572 C1.086,4.818 1.592,4.965 2.130,4.982 C1.249,4.394 0.670,3.388 0.670,2.250 C0.670,1.648 0.832,1.085 1.114,0.599 C2.732,2.586 5.152,3.892 7.880,4.029 C7.824,3.789 7.795,3.539 7.795,3.281 C7.795,1.469 9.265,-0.000 11.078,-0.000 C12.021,-0.000 12.875,0.398 13.474,1.035 C14.221,0.888 14.924,0.615 15.559,0.239 C15.312,1.006 14.793,1.649 14.115,2.054 C14.779,1.976 15.412,1.799 16.000,1.539 C15.561,2.197 15.004,2.775 14.362,3.238 Z"/></g></symbol><symbol id="speaker" viewBox="0 0 30 19"><g><path fill-rule="evenodd" d="M25.683,18.164 L24.961,17.442 C27.404,15.623 28.996,12.725 28.996,9.455 C28.996,6.269 27.487,3.437 25.151,1.611 L25.869,0.893 C28.383,2.902 29.994,5.991 29.994,9.455 C29.994,13.005 28.303,16.160 25.683,18.164 ZM22.457,14.940 L21.730,14.214 C23.385,13.270 24.505,11.492 24.505,9.455 C24.505,7.504 23.477,5.793 21.936,4.821 L22.662,4.097 C24.376,5.263 25.503,7.227 25.503,9.455 C25.503,11.770 24.285,13.795 22.457,14.940 ZM3.998,13.033 L3.998,19.014 L3.000,19.014 L3.000,13.033 L0.006,13.033 L0.006,6.056 L11.628,6.056 L18.963,-0.014 L18.963,18.924 L11.674,13.033 L3.998,13.033 ZM4.996,7.053 L1.004,7.053 L1.004,12.037 L4.996,12.037 L4.996,7.053 ZM12.302,12.259 L17.965,16.835 L17.965,2.106 L12.264,6.823 L11.987,7.053 L11.628,7.053 L5.994,7.053 L5.994,12.037 L11.674,12.037 L12.027,12.037 L12.302,12.259 Z"/></g></symbol></svg>