<?xml version="1.0" encoding="utf-8"?> <!-- Generated by Layerhero SVG Exporter: http://www.layerhero.com/photoshop-svg-exporter --><!DOCTYPE svg PUBLIC "-//W3C//DTD SVG 1.1//EN" "http://www.w3.org/Graphics/SVG/1.1/DTD/svg11.dtd"><svg version="1.1" baseProfile="full" xmlns="http://www.w3.org/2000/svg" xmlns:xlink="http://www.w3.org/1999/xlink" xmlns:ev="http://www.w3.org/2001/xml-events" width="19" height="21" viewBox="0 0 19 21"><g transform="scale(NaN)" ><path fill-rule="evenodd"  fill="rgb( 62, 31, 22 )" d="M17.848,16.011 C16.751,15.554 14.146,14.656 12.543,14.184 C12.406,14.141 12.385,14.134 12.385,13.566 C12.385,13.097 12.578,12.624 12.767,12.224 C12.971,11.790 13.213,11.059 13.300,10.404 C13.543,10.122 13.874,9.566 14.087,8.506 C14.273,7.572 14.187,7.232 14.063,6.913 C14.050,6.879 14.036,6.846 14.026,6.813 C13.980,6.594 14.044,5.456 14.204,4.573 C14.315,3.968 14.176,2.680 13.341,1.614 C12.814,0.940 11.805,0.114 9.962,-0.001 L8.951,-0.000 C7.140,0.114 6.130,0.940 5.603,1.614 C4.768,2.680 4.629,3.968 4.739,4.573 C4.900,5.456 4.964,6.594 4.918,6.809 C4.908,6.846 4.895,6.879 4.881,6.913 C4.758,7.232 4.670,7.572 4.857,8.506 C5.069,9.566 5.400,10.122 5.645,10.404 C5.730,11.059 5.973,11.790 6.178,12.224 C6.327,12.542 6.398,12.975 6.398,13.586 C6.398,14.154 6.376,14.161 6.248,14.202 C4.591,14.690 1.953,15.643 0.970,16.073 C0.191,16.407 0.000,17.006 0.000,17.547 C0.000,18.088 0.000,19.691 0.000,20.044 C0.000,20.398 0.211,21.001 0.970,21.001 C1.554,21.001 6.230,21.001 8.353,21.001 C8.990,21.001 9.400,21.001 9.400,21.001 L9.583,21.001 C9.583,21.001 10.000,21.001 10.646,21.001 C12.778,21.001 17.447,21.001 18.030,21.001 C18.789,21.001 19.000,20.398 19.000,20.044 C19.000,19.691 19.000,18.088 19.000,17.547 C19.000,17.006 18.627,16.345 17.848,16.011 ZM17.994,20.002 L10.646,20.002 L9.583,20.002 L9.400,20.002 L8.353,20.002 L1.000,20.002 L1.000,17.547 C1.000,17.244 1.089,17.108 1.371,16.988 C2.318,16.573 4.937,15.630 6.551,15.154 C7.398,14.886 7.398,14.135 7.398,13.586 C7.398,12.824 7.298,12.256 7.082,11.798 C6.918,11.450 6.709,10.825 6.637,10.274 L6.598,9.977 L6.400,9.750 C6.293,9.626 6.024,9.237 5.838,8.309 C5.693,7.587 5.758,7.420 5.809,7.285 C5.838,7.213 5.865,7.141 5.887,7.060 L5.892,7.038 L5.897,7.017 C5.996,6.546 5.861,5.149 5.723,4.394 C5.660,4.047 5.740,3.060 6.391,2.230 C6.789,1.720 7.562,1.096 8.984,0.999 L9.930,0.998 C11.092,1.077 11.975,1.491 12.554,2.230 C13.204,3.060 13.283,4.047 13.221,4.395 C13.080,5.171 12.946,6.544 13.049,7.022 L13.057,7.059 L13.067,7.095 C13.082,7.146 13.101,7.197 13.121,7.249 L13.130,7.273 L13.131,7.274 C13.188,7.420 13.252,7.585 13.106,8.309 C12.920,9.237 12.650,9.627 12.543,9.751 L12.348,9.977 L12.309,10.272 C12.235,10.823 12.025,11.450 11.861,11.799 C11.626,12.299 11.385,12.901 11.385,13.566 C11.385,14.115 11.385,14.867 12.260,15.142 C13.824,15.603 16.401,16.490 17.453,16.929 C17.852,17.100 18.000,17.399 18.000,17.547 L17.994,20.002 Z"/></g></svg>