<?xml version="1.0" encoding="utf-8"?> <!-- Generated by Layerhero SVG Exporter: http://www.layerhero.com/photoshop-svg-exporter --><!DOCTYPE svg PUBLIC "-//W3C//DTD SVG 1.1//EN" "http://www.w3.org/Graphics/SVG/1.1/DTD/svg11.dtd"><svg version="1.1" baseProfile="full" xmlns="http://www.w3.org/2000/svg" xmlns:xlink="http://www.w3.org/1999/xlink" xmlns:ev="http://www.w3.org/2001/xml-events" width="18" height="26" viewBox="0 0 18 26"><g transform="scale(NaN)" ><path fill-rule="evenodd"  fill="rgb( 255, 255, 255 )" d="M17.636,21.032 C17.636,21.032 15.443,18.879 14.472,17.917 C14.099,17.547 13.695,17.323 13.272,17.252 C12.687,17.153 12.279,17.388 12.178,17.454 C12.176,17.456 11.933,17.659 11.404,17.985 C10.895,18.299 10.258,18.116 9.827,17.532 C9.280,16.781 6.442,11.478 5.575,9.690 C5.401,9.330 5.362,9.025 5.453,8.754 C5.642,8.198 6.373,7.837 6.768,7.643 L6.906,7.574 C7.704,7.167 7.936,6.265 7.813,5.598 C7.732,5.155 6.821,1.622 6.706,1.229 C6.572,0.759 6.312,0.201 5.492,0.062 C5.024,-0.017 3.774,-0.034 2.892,0.417 L2.697,0.514 C1.901,0.904 0.419,1.630 0.080,3.619 C-0.349,6.145 0.819,10.205 3.649,16.029 C6.674,22.258 10.961,25.646 12.907,25.975 C14.689,26.276 16.801,24.288 17.545,23.277 C18.261,22.303 17.940,21.408 17.636,21.032 Z"/></g></svg>