<?xml version="1.0" encoding="utf-8"?> <!-- Generated by Layerhero SVG Exporter: http://www.layerhero.com/photoshop-svg-exporter --><!DOCTYPE svg PUBLIC "-//W3C//DTD SVG 1.1//EN" "http://www.w3.org/Graphics/SVG/1.1/DTD/svg11.dtd"><svg version="1.1" baseProfile="full" xmlns="http://www.w3.org/2000/svg" xmlns:xlink="http://www.w3.org/1999/xlink" xmlns:ev="http://www.w3.org/2001/xml-events" width="24" height="27" viewBox="0 0 24 27"><g transform="scale(NaN)" ><path fill-rule="evenodd"  fill="rgb( 114, 129, 137 )" d="M18.949,27.000 C16.667,27.000 11.126,24.084 6.472,17.824 C2.119,11.971 0.001,7.742 0.001,4.896 C0.001,2.655 1.550,1.586 2.382,1.012 L2.585,0.869 C3.503,0.213 4.931,-0.000 5.480,-0.000 C6.441,-0.000 6.845,0.562 7.089,1.052 C7.296,1.462 9.019,5.161 9.197,5.631 C9.466,6.339 9.376,7.370 8.546,7.963 L8.402,8.064 C7.990,8.350 7.226,8.880 7.119,9.524 C7.068,9.838 7.171,10.165 7.439,10.526 C8.773,12.323 13.035,17.604 13.804,18.325 C14.408,18.885 15.169,18.968 15.689,18.529 C16.228,18.075 16.466,17.807 16.468,17.805 C16.570,17.714 16.990,17.381 17.675,17.381 C18.171,17.381 18.675,17.551 19.171,17.888 C20.464,18.761 23.380,20.712 23.380,20.712 C23.800,21.067 24.339,21.988 23.712,23.187 C23.060,24.431 21.039,27.000 18.949,27.000 ZM5.480,1.000 C5.005,1.000 3.841,1.200 3.167,1.682 L2.951,1.834 C2.175,2.370 1.001,3.180 1.001,4.896 C1.001,7.519 3.054,11.553 7.275,17.227 C11.882,23.427 17.152,26.000 18.949,26.000 C20.474,26.000 22.226,23.865 22.826,22.723 C23.216,21.975 22.851,21.576 22.771,21.502 C22.761,21.501 19.892,19.581 18.613,18.716 C18.283,18.494 17.968,18.381 17.675,18.381 C17.380,18.381 17.199,18.497 17.161,18.522 C17.158,18.533 16.884,18.829 16.333,19.294 C15.441,20.044 14.083,19.953 13.123,19.055 C12.253,18.244 7.882,12.802 6.636,11.122 C6.205,10.540 6.035,9.948 6.132,9.361 C6.308,8.299 7.300,7.611 7.832,7.242 L7.966,7.149 C8.443,6.809 8.341,6.193 8.261,5.984 C8.113,5.589 6.410,1.928 6.197,1.501 C6.019,1.147 5.880,1.000 5.480,1.000 Z"/></g></svg>