<?xml version="1.0" encoding="utf-8"?> <!-- Generated by Layerhero SVG Exporter: http://www.layerhero.com/photoshop-svg-exporter --><!DOCTYPE svg PUBLIC "-//W3C//DTD SVG 1.1//EN" "http://www.w3.org/Graphics/SVG/1.1/DTD/svg11.dtd"><svg version="1.1" baseProfile="full" xmlns="http://www.w3.org/2000/svg" xmlns:xlink="http://www.w3.org/1999/xlink" xmlns:ev="http://www.w3.org/2001/xml-events" width="27" height="26" viewBox="0 0 27 26"><g transform="scale(NaN)" ><path fill-rule="evenodd"  fill="rgb( 255, 255, 255 )" d="M26.995,7.000 L6.315,7.000 L4.645,-0.000 L0.005,-0.000 L0.005,1.000 L3.871,1.000 L8.669,21.110 C7.645,21.413 6.894,22.361 6.894,23.500 C6.894,24.880 7.995,26.000 9.354,26.000 C10.713,26.000 11.814,24.880 11.814,23.500 C11.814,22.934 11.623,22.419 11.311,22.000 L18.221,22.000 C17.909,22.419 17.718,22.934 17.718,23.500 C17.718,24.880 18.819,26.000 20.178,26.000 C21.537,26.000 22.638,24.880 22.638,23.500 C22.638,22.118 21.537,21.000 20.178,21.000 L9.655,21.000 L9.177,19.000 L22.991,19.000 L26.995,7.000 ZM10.830,23.500 C10.830,24.327 10.168,25.000 9.354,25.000 C8.540,25.000 7.878,24.327 7.878,23.500 C7.878,22.673 8.540,22.000 9.354,22.000 C10.168,22.000 10.830,22.673 10.830,23.500 ZM21.654,23.500 C21.654,24.327 20.992,25.000 20.178,25.000 C19.364,25.000 18.702,24.327 18.702,23.500 C18.702,22.673 19.364,22.000 20.178,22.000 C20.992,22.000 21.654,22.673 21.654,23.500 ZM8.938,18.000 L6.553,8.000 L25.622,8.000 L22.286,18.000 L8.938,18.000 Z"/></g></svg>