<?xml version="1.0" encoding="utf-8"?> <!-- Generated by Layerhero SVG Exporter: http://www.layerhero.com/photoshop-svg-exporter --><!DOCTYPE svg PUBLIC "-//W3C//DTD SVG 1.1//EN" "http://www.w3.org/Graphics/SVG/1.1/DTD/svg11.dtd"><svg version="1.1" baseProfile="full" xmlns="http://www.w3.org/2000/svg" xmlns:xlink="http://www.w3.org/1999/xlink" xmlns:ev="http://www.w3.org/2001/xml-events" width="27" height="27" viewBox="0 0 27 27"><g transform="scale(NaN)" ><path fill-rule="evenodd"  fill="rgb( 114, 129, 137 )" d="M13.500,27.000 C6.045,27.000 -0.000,20.955 -0.000,13.500 C-0.000,6.045 6.045,-0.000 13.500,-0.000 C20.955,-0.000 27.000,6.045 27.000,13.500 C27.000,20.955 20.955,27.000 13.500,27.000 ZM13.500,1.125 C6.676,1.125 1.125,6.676 1.125,13.500 C1.125,20.323 6.676,25.875 13.500,25.875 C20.324,25.875 25.875,20.323 25.875,13.500 C25.875,6.676 20.324,1.125 13.500,1.125 ZM6.750,14.625 L13.500,14.625 L13.500,4.546 L14.625,4.546 L14.625,15.750 L6.750,15.750 L6.750,14.625 Z"/></g></svg>