<?xml version="1.0" encoding="utf-8"?>
<svg xmlns="http://www.w3.org/2000/svg"
	xmlns:xlink="http://www.w3.org/1999/xlink"
	width="29px" height="41px">
<path fill="rgb(255,255,255)" fill-rule="evenodd" d="M 14.51 1.61C 21.49 1.61 27.17 7.05 27.17 13.73 27.17 15.85 26.58 17.95 25.47 19.79 25.47 19.79 14.51 37.97 14.51 37.97 14.51 37.97 3.55 19.79 3.55 19.79 2.44 17.95 1.85 15.85 1.85 13.73 1.85 7.05 7.53 1.61 14.51 1.61M 14.51 18.44C 17.23 18.44 19.44 16.33 19.44 13.73 19.44 11.13 17.23 9.02 14.51 9.02 11.8 9.02 9.59 11.13 9.59 13.73 9.59 16.33 11.8 18.44 14.51 18.44M 14.51 0.26C 6.74 0.26 0.45 6.29 0.45 13.73 0.45 16.18 1.14 18.48 2.34 20.46 2.34 20.46 14.51 40.66 14.51 40.66 14.51 40.66 26.69 20.46 26.69 20.46 27.89 18.48 28.58 16.18 28.58 13.73 28.58 6.29 22.28 0.26 14.51 0.26 14.51 0.26 14.51 0.26 14.51 0.26ZM 14.51 17.09C 12.57 17.09 11 15.59 11 13.73 11 11.87 12.57 10.36 14.51 10.36 16.46 10.36 18.03 11.87 18.03 13.73 18.03 15.59 16.46 17.09 14.51 17.09 14.51 17.09 14.51 17.09 14.51 17.09Z"/>
</svg>