<?xml version="1.0" encoding="utf-8"?> <!-- Generated by Layerhero SVG Exporter: http://www.layerhero.com/photoshop-svg-exporter --><!DOCTYPE svg PUBLIC "-//W3C//DTD SVG 1.1//EN" "http://www.w3.org/Graphics/SVG/1.1/DTD/svg11.dtd"><svg version="1.1" baseProfile="full" xmlns="http://www.w3.org/2000/svg" xmlns:xlink="http://www.w3.org/1999/xlink" xmlns:ev="http://www.w3.org/2001/xml-events" width="17" height="17" viewBox="0 0 17 17"><g transform="scale(NaN)" ><path fill-rule="evenodd"  fill="rgb( 255, 255, 255 )" d="M9.783,15.108 L13.079,15.108 L13.079,11.388 L13.079,11.350 L14.999,11.350 L14.999,11.388 L14.999,15.134 C14.999,15.647 14.787,16.112 14.444,16.449 C14.101,16.785 13.627,16.995 13.106,16.995 L9.783,16.995 L9.783,15.108 L9.783,15.108 ZM9.783,8.302 L9.783,5.635 L13.590,1.895 L9.783,1.895 L9.783,0.009 L16.044,0.009 C16.574,0.009 17.004,0.432 17.004,0.952 L17.004,8.485 L15.084,8.485 L15.084,3.094 L9.783,8.302 ZM1.899,1.882 L5.440,1.882 L5.440,3.768 L1.925,3.768 L1.925,15.108 L9.783,15.108 L9.783,16.995 L1.899,16.995 C1.377,16.995 0.903,16.785 0.560,16.449 C0.218,16.112 0.005,15.647 0.005,15.134 L0.005,3.743 C0.005,3.230 0.218,2.765 0.560,2.428 C0.903,2.091 1.377,1.882 1.899,1.882 L1.899,1.882 ZM9.783,0.009 L8.280,0.009 L8.280,1.895 L9.783,1.895 L9.783,0.009 L9.783,0.009 ZM9.783,5.635 L4.567,10.760 L5.924,12.093 L9.783,8.302 L9.783,5.635 Z"/></g></svg>