<?xml version="1.0" encoding="utf-8"?> <!-- Generated by Layerhero SVG Exporter: http://www.layerhero.com/photoshop-svg-exporter --><!DOCTYPE svg PUBLIC "-//W3C//DTD SVG 1.1//EN" "http://www.w3.org/Graphics/SVG/1.1/DTD/svg11.dtd"><svg version="1.1" baseProfile="full" xmlns="http://www.w3.org/2000/svg" xmlns:xlink="http://www.w3.org/1999/xlink" xmlns:ev="http://www.w3.org/2001/xml-events" width="27" height="27" viewBox="0 0 27 27"><g transform="scale(NaN)" ><path fill-rule="evenodd"  fill="rgb( 114, 129, 137 )" d="M13.500,-0.000 C13.497,-0.000 13.493,-0.000 13.488,-0.000 C13.486,-0.000 13.485,-0.000 13.483,-0.000 C13.478,-0.000 13.472,0.001 13.467,0.001 C6.025,0.018 -0.000,6.055 -0.000,13.499 C-0.000,20.944 6.025,26.981 13.467,26.998 C13.472,26.998 13.478,27.000 13.483,27.000 C13.485,27.000 13.486,27.000 13.488,27.000 C13.493,27.000 13.497,27.000 13.500,27.000 C20.954,27.000 27.000,20.954 27.000,13.499 C27.000,6.044 20.954,-0.000 13.500,-0.000 ZM14.040,8.079 C15.471,8.040 16.863,7.851 18.205,7.524 C18.610,9.115 18.860,10.949 18.899,12.959 L14.040,12.959 L14.040,8.079 ZM14.040,6.998 L14.040,1.165 C15.496,1.568 16.971,3.510 17.911,6.485 C16.663,6.785 15.370,6.961 14.040,6.998 ZM12.960,1.152 L12.960,6.998 C11.619,6.961 10.315,6.782 9.059,6.477 C10.006,3.482 11.495,1.534 12.960,1.152 ZM12.960,8.079 L12.960,12.959 L8.067,12.959 C8.106,10.947 8.358,9.110 8.762,7.517 C10.113,7.847 11.517,8.039 12.960,8.079 ZM6.980,12.959 L1.094,12.959 C1.213,10.184 2.247,7.640 3.903,5.625 C5.106,6.288 6.381,6.830 7.717,7.234 C7.280,8.958 7.019,10.899 6.980,12.959 ZM6.980,14.040 C7.019,16.100 7.280,18.041 7.717,19.763 C6.382,20.169 5.106,20.711 3.903,21.374 C2.247,19.359 1.213,16.816 1.094,14.040 L6.980,14.040 ZM8.067,14.040 L12.960,14.040 L12.960,18.916 C11.517,18.955 10.113,19.146 8.761,19.478 C8.357,17.886 8.106,16.051 8.067,14.040 ZM12.960,19.994 L12.960,25.847 C11.493,25.464 10.004,23.514 9.057,20.516 C10.314,20.211 11.619,20.032 12.960,19.994 ZM14.040,25.834 L14.040,19.994 C15.370,20.032 16.664,20.208 17.912,20.509 C16.972,23.487 15.496,25.431 14.040,25.834 ZM14.040,18.916 L14.040,14.040 L18.899,14.040 C18.860,16.048 18.610,17.881 18.207,19.470 C16.864,19.144 15.471,18.955 14.040,18.916 ZM19.986,14.040 L25.906,14.040 C25.787,16.816 24.753,19.359 23.097,21.374 C21.886,20.706 20.599,20.160 19.251,19.754 C19.686,18.032 19.947,16.096 19.986,14.040 ZM19.986,12.959 C19.947,10.901 19.686,8.962 19.250,7.241 C20.597,6.834 21.884,6.289 23.094,5.622 C24.752,7.638 25.786,10.181 25.906,12.959 L19.986,12.959 ZM22.350,4.797 C21.276,5.370 20.141,5.841 18.958,6.200 C18.326,4.169 17.439,2.512 16.392,1.423 C18.691,1.974 20.744,3.163 22.350,4.797 ZM10.565,1.433 C9.523,2.520 8.641,4.170 8.011,6.191 C6.838,5.833 5.714,5.365 4.650,4.797 C6.245,3.174 8.282,1.988 10.565,1.433 ZM4.646,22.198 C5.711,21.629 6.836,21.161 8.010,20.803 C8.639,22.827 9.522,24.479 10.565,25.566 C8.281,25.011 6.243,23.823 4.646,22.198 ZM16.391,25.576 C17.441,24.487 18.327,22.829 18.959,20.794 C20.143,21.153 21.278,21.625 22.354,22.198 C20.747,23.833 18.692,25.025 16.391,25.576 Z"/></g></svg>