<?xml version="1.0" encoding="utf-8"?> <!-- Generated by Layerhero SVG Exporter: http://www.layerhero.com/photoshop-svg-exporter --><!DOCTYPE svg PUBLIC "-//W3C//DTD SVG 1.1//EN" "http://www.w3.org/Graphics/SVG/1.1/DTD/svg11.dtd"><svg version="1.1" baseProfile="full" xmlns="http://www.w3.org/2000/svg" xmlns:xlink="http://www.w3.org/1999/xlink" xmlns:ev="http://www.w3.org/2001/xml-events" width="42" height="27" viewBox="0 0 42 27"><g transform="scale(NaN)" ><path fill-rule="evenodd"  fill="rgb( 255, 255, 255 )" d="M38.350,26.930 L32.701,26.930 C30.735,26.930 29.135,25.376 29.135,23.464 L29.135,18.006 C29.135,16.095 30.735,14.541 32.701,14.541 L38.350,14.541 C40.316,14.541 41.915,16.095 41.915,18.006 L41.915,23.464 C41.915,25.376 40.316,26.930 38.350,26.930 ZM40.433,18.006 C40.433,16.908 39.498,16.015 38.350,16.015 L32.701,16.015 C31.553,16.015 30.618,16.908 30.618,18.006 L30.618,23.464 C30.618,24.563 31.553,25.457 32.701,25.457 L38.350,25.457 C39.498,25.457 40.433,24.563 40.433,23.464 L40.433,18.006 ZM38.350,13.285 L32.701,13.285 C30.735,13.285 29.135,11.731 29.135,9.820 L29.135,4.361 C29.135,2.450 30.735,0.895 32.701,0.895 L38.350,0.895 C40.316,0.895 41.915,2.450 41.915,4.361 L41.915,9.820 C41.915,11.731 40.316,13.285 38.350,13.285 ZM40.433,4.361 C40.433,3.263 39.498,2.369 38.350,2.369 L32.701,2.369 C31.553,2.369 30.618,3.263 30.618,4.361 L30.618,9.820 C30.618,10.918 31.553,11.812 32.701,11.812 L38.350,11.812 C39.498,11.812 40.433,10.918 40.433,9.820 L40.433,4.361 ZM24.228,26.930 L18.579,26.930 C16.614,26.930 15.014,25.376 15.014,23.464 L15.014,18.006 C15.014,16.095 16.614,14.541 18.579,14.541 L24.228,14.541 C26.194,14.541 27.794,16.095 27.794,18.006 L27.794,23.464 C27.794,25.376 26.194,26.930 24.228,26.930 ZM26.311,18.006 C26.311,16.908 25.377,16.015 24.228,16.015 L18.579,16.015 C17.431,16.015 16.497,16.908 16.497,18.006 L16.497,23.464 C16.497,24.563 17.431,25.457 18.579,25.457 L24.228,25.457 C25.377,25.457 26.311,24.563 26.311,23.464 L26.311,18.006 ZM24.228,13.285 L18.579,13.285 C16.614,13.285 15.014,11.731 15.014,9.820 L15.014,4.361 C15.014,2.450 16.614,0.895 18.579,0.895 L24.228,0.895 C26.194,0.895 27.794,2.450 27.794,4.361 L27.794,9.820 C27.794,11.731 26.194,13.285 24.228,13.285 ZM26.311,4.361 C26.311,3.263 25.377,2.369 24.228,2.369 L18.579,2.369 C17.431,2.369 16.497,3.263 16.497,4.361 L16.497,9.820 C16.497,10.918 17.431,11.812 18.579,11.812 L24.228,11.812 C25.377,11.812 26.311,10.918 26.311,9.820 L26.311,4.361 ZM10.107,26.930 L4.458,26.930 C2.492,26.930 0.892,25.376 0.892,23.464 L0.892,18.006 C0.892,16.095 2.492,14.541 4.458,14.541 L10.107,14.541 C12.073,14.541 13.672,16.095 13.672,18.006 L13.672,23.464 C13.672,25.376 12.073,26.930 10.107,26.930 ZM12.190,18.006 C12.190,16.908 11.255,16.015 10.107,16.015 L4.458,16.015 C3.309,16.015 2.375,16.908 2.375,18.006 L2.375,23.464 C2.375,24.563 3.309,25.457 4.458,25.457 L10.107,25.457 C11.255,25.457 12.190,24.563 12.190,23.464 L12.190,18.006 ZM10.107,13.285 L4.458,13.285 C2.492,13.285 0.892,11.731 0.892,9.820 L0.892,4.361 C0.892,2.450 2.492,0.895 4.458,0.895 L10.107,0.895 C12.073,0.895 13.672,2.450 13.672,4.361 L13.672,9.820 C13.672,11.731 12.073,13.285 10.107,13.285 ZM12.190,4.361 C12.190,3.263 11.255,2.369 10.107,2.369 L4.458,2.369 C3.309,2.369 2.375,3.263 2.375,4.361 L2.375,9.820 C2.375,10.918 3.309,11.812 4.458,11.812 L10.107,11.812 C11.255,11.812 12.190,10.918 12.190,9.820 L12.190,4.361 Z"/></g></svg>