<?xml version="1.0" encoding="utf-8"?>
<svg xmlns="http://www.w3.org/2000/svg"
	xmlns:xlink="http://www.w3.org/1999/xlink"
	width="16px" height="16px">
<defs>
<path id="symbol0" fill-rule="evenodd" d="M 15.31 5.95C 15.31 5.95 12.87 8.39 12.87 8.39 11.97 9.29 10.51 9.29 9.62 8.39 9.62 8.39 10.87 7.13 10.87 7.13 11.26 7.24 11.75 7.07 12.06 6.77 12.06 6.77 13.68 5.14 13.68 5.14 14.13 4.69 14.13 3.96 13.68 3.51 13.68 3.51 12.46 2.29 12.46 2.29 12.01 1.84 11.28 1.84 10.84 2.29 10.84 2.29 9.21 3.92 9.21 3.92 8.89 4.24 8.73 4.7 8.86 5.1 8.86 5.1 7.58 6.36 7.58 6.36 6.68 5.46 6.68 4.01 7.58 3.11 7.58 3.11 10.02 0.67 10.02 0.67 10.92-0.23 12.38-0.23 13.28 0.67 13.28 0.67 15.31 2.7 15.31 2.7 16.21 3.6 16.21 5.06 15.31 5.95ZM 5.34 10.63C 5.01 10.3 5.01 9.75 5.34 9.41 5.34 9.41 9.41 5.34 9.41 5.34 9.75 5.01 10.29 5.01 10.63 5.34 10.97 5.68 10.97 6.23 10.63 6.56 10.63 6.56 6.56 10.63 6.56 10.63 6.23 10.97 5.68 10.97 5.34 10.63ZM 3.92 9.21C 3.92 9.21 2.29 10.84 2.29 10.84 1.84 11.28 1.84 12.01 2.29 12.46 2.29 12.46 3.51 13.68 3.51 13.68 3.96 14.13 4.69 14.13 5.14 13.68 5.14 13.68 6.77 12.06 6.77 12.06 7.07 11.75 7.24 11.26 7.13 10.87 7.13 10.87 8.39 9.62 8.39 9.62 9.29 10.51 9.29 11.97 8.39 12.87 8.39 12.87 5.95 15.31 5.95 15.31 5.06 16.21 3.6 16.21 2.7 15.31 2.7 15.31 0.67 13.28 0.67 13.28-0.23 12.38-0.23 10.92 0.67 10.02 0.67 10.02 3.11 7.58 3.11 7.58 4.01 6.68 5.46 6.68 6.36 7.58 6.36 7.58 5.1 8.86 5.1 8.86 4.7 8.73 4.24 8.89 3.92 9.21Z"/>
</defs>
<g>
<use xlink:href="#symbol0" fill="rgb(97,65,97)"/>
<use xlink:href="#symbol0" fill="rgb(194,194,194)"/>
</g>
</svg>