<?xml version="1.0" encoding="utf-8"?>
<svg xmlns="http://www.w3.org/2000/svg"
	xmlns:xlink="http://www.w3.org/1999/xlink"
	width="17px" height="16px">
<defs>
<path id="symbol0" fill-rule="evenodd" d="M-0 15.39C-0 15.39-0 9.13-0 9.13-0 9.13 6.28 9.13 6.28 9.13 6.28 9.13 6.28 9.82 6.28 9.82 6.28 9.82 10.46 9.82 10.46 9.82 10.46 9.82 10.46 9.13 10.46 9.13 10.46 9.13 16.74 9.13 16.74 9.13 16.74 9.13 16.74 15.39 16.74 15.39 16.74 15.39-0 15.39-0 15.39ZM 10.46 7.74C 10.46 7.74 6.28 7.74 6.28 7.74 6.28 7.74 6.28 8.43 6.28 8.43 6.28 8.43-0 8.43-0 8.43-0 8.43-0 2.17-0 2.17-0 2.17 5.58 2.17 5.58 2.17 5.58 2.17 5.58 0.08 5.58 0.08 5.58 0.08 11.16 0.08 11.16 0.08 11.16 0.08 11.16 2.17 11.16 2.17 11.16 2.17 16.74 2.17 16.74 2.17 16.74 2.17 16.74 8.43 16.74 8.43 16.74 8.43 10.46 8.43 10.46 8.43 10.46 8.43 10.46 7.74 10.46 7.74ZM 10.46 0.78C 10.46 0.78 6.28 0.78 6.28 0.78 6.28 0.78 6.28 2.17 6.28 2.17 6.28 2.17 10.46 2.17 10.46 2.17 10.46 2.17 10.46 0.78 10.46 0.78Z"/>
</defs>
<g>
<use xlink:href="#symbol0" fill="rgb(0,0,0)"/>
<use xlink:href="#symbol0" fill="rgb(194,194,194)"/>
</g>
</svg>