<?xml version="1.0" encoding="utf-8"?>
<svg xmlns="http://www.w3.org/2000/svg"
	xmlns:xlink="http://www.w3.org/1999/xlink"
	width="19px" height="12px">
<defs>
<path id="symbol0" fill-rule="evenodd" d="M 13.16 5.87C 13.16 5.87 18.39 0.66 18.39 0.66 18.39 0.66 18.39 11.09 18.39 11.09 18.39 11.09 13.16 5.87 13.16 5.87ZM 9.1 7.8C 9.1 7.8 1.67 0.39 1.67 0.39 1.67 0.39 17.68 0.39 17.68 0.39 17.68 0.39 10.25 7.8 10.25 7.8 9.94 8.11 9.41 8.11 9.1 7.8ZM 0.96 11.09C 0.96 11.09 0.96 0.66 0.96 0.66 0.96 0.66 6.18 5.87 6.18 5.87 6.18 5.87 0.96 11.09 0.96 11.09ZM 8.6 8.29C 8.89 8.58 9.27 8.73 9.67 8.73 10.08 8.73 10.46 8.58 10.74 8.29 10.74 8.29 12.67 6.37 12.67 6.37 12.67 6.37 17.84 11.52 17.84 11.52 17.84 11.52 1.51 11.52 1.51 11.52 1.51 11.52 6.67 6.37 6.67 6.37 6.67 6.37 8.6 8.29 8.6 8.29Z"/>
</defs>
<g>
<use xlink:href="#symbol0" fill="rgb(0,0,0)"/>
<use xlink:href="#symbol0" fill="rgb(194,194,194)"/>
</g>
</svg>