<?xml version="1.0" encoding="utf-8"?>
<svg xmlns="http://www.w3.org/2000/svg"
	xmlns:xlink="http://www.w3.org/1999/xlink"
	width="16px" height="17px">
<defs>
<path id="symbol0" fill-rule="evenodd" d="M 15.11 13.19C 15.11 13.19 13.34 12.01 12.55 11.48 12.25 11.28 11.94 11.18 11.64 11.18 11.23 11.18 10.97 11.38 10.91 11.43 10.91 11.43 10.76 11.6 10.44 11.87 10.12 12.14 9.66 12.09 9.29 11.75 8.82 11.31 6.24 8.11 5.43 7.03 5.26 6.81 5.2 6.61 5.23 6.42 5.3 6.03 5.76 5.71 6.01 5.53 6.01 5.53 6.1 5.47 6.1 5.47 6.6 5.11 6.66 4.49 6.49 4.06 6.39 3.78 5.34 1.54 5.21 1.29 5.07 0.99 4.82 0.65 4.24 0.65 3.9 0.65 3.04 0.78 2.48 1.18 2.48 1.18 2.36 1.26 2.36 1.26 1.85 1.61 0.91 2.26 0.91 3.62 0.91 5.34 2.2 7.9 4.84 11.44 7.67 15.23 11.03 17 12.42 17 13.68 17 14.91 15.44 15.31 14.69 15.69 13.97 15.36 13.41 15.11 13.19Z"/>
</defs>
<g>
<use xlink:href="#symbol0" fill="rgb(0,0,0)"/>
<use xlink:href="#symbol0" fill="rgb(194,194,194)"/>
</g>
</svg>