<?xml version="1.0" encoding="utf-8"?> <!-- Generated by Layerhero SVG Exporter: http://www.layerhero.com/photoshop-svg-exporter --><!DOCTYPE svg PUBLIC "-//W3C//DTD SVG 1.1//EN" "http://www.w3.org/Graphics/SVG/1.1/DTD/svg11.dtd"><svg version="1.1" baseProfile="full" xmlns="http://www.w3.org/2000/svg" xmlns:xlink="http://www.w3.org/1999/xlink" xmlns:ev="http://www.w3.org/2001/xml-events" width="19" height="28" viewBox="0 0 19 28"><g transform="scale(NaN)" ><path fill-rule="evenodd"  fill="rgb( 114, 129, 137 )" d="M9.500,0.932 C14.215,0.932 18.050,4.701 18.050,9.333 C18.050,10.806 17.653,12.257 16.901,13.533 L9.500,26.133 L2.098,13.532 C1.347,12.257 0.950,10.806 0.950,9.333 C0.950,4.701 4.786,0.932 9.500,0.932 M9.500,12.599 C11.334,12.599 12.825,11.134 12.825,9.333 C12.825,7.532 11.334,6.067 9.500,6.067 C7.667,6.067 6.175,7.532 6.175,9.333 C6.175,11.134 7.667,12.599 9.500,12.599 M9.500,-0.001 C4.254,-0.001 -0.000,4.179 -0.000,9.333 C-0.000,11.035 0.466,12.626 1.276,14.000 L9.500,28.000 L17.724,14.000 C18.534,12.626 19.000,11.035 19.000,9.333 C19.000,4.179 14.746,-0.001 9.500,-0.001 L9.500,-0.001 ZM9.500,11.666 C8.189,11.666 7.125,10.622 7.125,9.333 C7.125,8.045 8.189,7.000 9.500,7.000 C10.812,7.000 11.875,8.045 11.875,9.333 C11.875,10.622 10.812,11.666 9.500,11.666 L9.500,11.666 Z"/></g></svg>