<?xml version="1.0" encoding="utf-8"?> <!-- Generated by Layerhero SVG Exporter: http://www.layerhero.com/photoshop-svg-exporter --><!DOCTYPE svg PUBLIC "-//W3C//DTD SVG 1.1//EN" "http://www.w3.org/Graphics/SVG/1.1/DTD/svg11.dtd"><svg version="1.1" baseProfile="full" xmlns="http://www.w3.org/2000/svg" xmlns:xlink="http://www.w3.org/1999/xlink" xmlns:ev="http://www.w3.org/2001/xml-events" width="71" height="46" viewBox="0 0 71 46"><g transform="scale(NaN)" ><path fill-rule="evenodd"  fill="rgb( 214, 0, 16 )" d="M67.906,0.767 L2.875,0.767 L2.311,0.767 L0.610,0.767 L-0.001,0.767 L-0.001,45.668 L70.787,45.668 L70.787,0.767 L68.337,0.767 L67.906,0.767 ZM65.074,3.572 L37.727,30.678 C36.483,31.913 34.303,31.913 33.059,30.678 L5.706,3.572 L65.074,3.572 ZM2.831,4.690 L21.216,22.909 L2.831,41.131 L2.831,4.690 ZM5.087,42.863 L23.221,24.895 L31.057,32.662 C32.213,33.810 33.756,34.444 35.393,34.444 C37.030,34.444 38.573,33.810 39.729,32.662 L47.565,24.895 L65.693,42.863 L5.087,42.863 ZM67.955,41.136 L49.567,22.910 L67.955,4.685 L67.955,41.136 Z"/></g></svg>