<?xml version="1.0" encoding="utf-8"?>
<svg xmlns="http://www.w3.org/2000/svg"
	xmlns:xlink="http://www.w3.org/1999/xlink"
	width="51px" height="60px">
<path fill="rgb(187,187,187)" fill-rule="evenodd" d="M 33.26 32.77C 33.26 32.77 26.61 28.96 26.61 28.96 26.61 28.96 26.61 15.46 26.61 15.46 30.36 14.91 33.24 11.69 33.24 7.78 33.24 3.48 29.76-0 25.47-0 21.19-0 17.71 3.48 17.71 7.78 17.71 11.7 20.62 14.94 24.39 15.47 24.39 15.47 24.39 27.69 24.39 27.69 24.39 27.69 17.74 23.88 17.74 23.88 17.74 23.88-0 31.11-0 31.11-0 31.11-0 58.33-0 58.33-0 58.33 17.74 51.11 17.74 51.11 17.74 51.11 33.26 60 33.26 60 33.26 60 51 51.11 51 51.11 51 51.11 51 23.88 51 23.88 51 23.88 33.26 32.77 33.26 32.77ZM 15.52 49.61C 15.52 49.61 2.22 55.03 2.22 55.03 2.22 55.03 2.22 32.61 2.22 32.61 2.22 32.61 15.52 27.19 15.52 27.19 15.52 27.19 15.52 49.61 15.52 49.61ZM 19.93 7.78C 19.93 4.71 22.42 2.22 25.47 2.22 28.53 2.22 31.02 4.71 31.02 7.78 31.02 10.84 28.53 13.33 25.47 13.33 22.42 13.33 19.93 10.84 19.93 7.78ZM 33.26 57.51C 33.26 57.51 17.74 48.62 17.74 48.62 17.74 48.62 17.74 26.37 17.74 26.37 17.74 26.37 24.39 30.18 24.39 30.18 24.39 30.18 24.39 40 24.39 40 24.39 40 26.61 40 26.61 40 26.61 40 26.61 31.45 26.61 31.45 26.61 31.45 33.26 35.26 33.26 35.26 33.26 35.26 33.26 57.51 33.26 57.51ZM 48.78 49.74C 48.78 49.74 35.48 56.4 35.48 56.4 35.48 56.4 35.48 34.15 35.48 34.15 35.48 34.15 48.78 27.48 48.78 27.48 48.78 27.48 48.78 49.74 48.78 49.74Z"/>
</svg>