<?xml version="1.0" encoding="utf-8"?>
<svg xmlns="http://www.w3.org/2000/svg"
	xmlns:xlink="http://www.w3.org/1999/xlink"
	width="19px" height="28px">
<path fill="rgb(123,127,129)" fill-rule="evenodd" d="M 12.83 27.31C 10.71 26.75 6.26 22.87 3.39 16.34 0.7 10.23-0.28 6.08 0.37 3.63 0.89 1.71 2.57 1.18 3.47 0.89 3.47 0.89 3.69 0.82 3.69 0.82 4.69 0.48 6.06 0.65 6.57 0.79 7.46 1.03 7.7 1.61 7.82 2.09 7.92 2.5 8.66 6.1 8.72 6.55 8.8 7.22 8.48 8.08 7.58 8.39 7.58 8.39 7.42 8.44 7.42 8.44 6.97 8.58 6.14 8.85 5.9 9.37 5.78 9.63 5.8 9.94 5.96 10.31 6.78 12.19 9.51 17.78 10.06 18.59 10.49 19.22 11.18 19.48 11.76 19.23 12.36 18.98 12.64 18.8 12.65 18.8 12.76 18.75 13.23 18.57 13.86 18.74 14.32 18.86 14.75 19.13 15.13 19.54 16.12 20.61 18.38 23.01 18.38 23.01 18.68 23.42 18.97 24.35 18.11 25.22 17.22 26.13 14.76 27.83 12.83 27.31ZM 6.34 1.65C 5.9 1.53 4.78 1.41 4.04 1.66 4.04 1.66 3.81 1.74 3.81 1.74 2.97 2.01 1.69 2.41 1.3 3.88 0.69 6.14 1.67 10.11 4.27 16.03 7.11 22.49 11.39 26.01 13.06 26.45 14.47 26.83 16.58 25.43 17.4 24.6 17.93 24.06 17.69 23.62 17.63 23.54 17.62 23.54 15.41 21.18 14.42 20.12 14.17 19.84 13.9 19.67 13.63 19.6 13.36 19.52 13.16 19.58 13.12 19.59 13.12 19.6 12.8 19.79 12.18 20.05 11.18 20.47 9.94 20.06 9.26 19.05 8.64 18.13 5.85 12.38 5.08 10.63 4.82 10.02 4.8 9.47 5.02 8.99 5.43 8.12 6.5 7.78 7.08 7.59 7.08 7.59 7.23 7.54 7.23 7.54 7.75 7.37 7.79 6.82 7.77 6.62 7.72 6.24 6.99 2.68 6.89 2.26 6.81 1.91 6.71 1.75 6.34 1.65Z"/>
</svg>