<?xml version="1.0" encoding="utf-8"?>
<svg xmlns="http://www.w3.org/2000/svg"
	xmlns:xlink="http://www.w3.org/1999/xlink"
	width="9px" height="9px">
<path fill="rgb(83,87,89)" fill-rule="evenodd" d="M 8 9C 8 9 8 8 8 8 8 8 9 8 9 8 9 8 9 9 9 9 9 9 8 9 8 9ZM 8 4C 8 4 9 4 9 4 9 4 9 5 9 5 9 5 8 5 8 5 8 5 8 4 8 4ZM 8-0C 8-0 9-0 9-0 9-0 9 1 9 1 9 1 8 1 8 1 8 1 8-0 8-0ZM 4 8C 4 8 5 8 5 8 5 8 5 9 5 9 5 9 4 9 4 9 4 9 4 8 4 8ZM 4 4C 4 4 5 4 5 4 5 4 5 5 5 5 5 5 4 5 4 5 4 5 4 4 4 4ZM 4-0C 4-0 5-0 5-0 5-0 5 1 5 1 5 1 4 1 4 1 4 1 4-0 4-0ZM-0 8C-0 8 1 8 1 8 1 8 1 9 1 9 1 9-0 9-0 9-0 9-0 8-0 8ZM-0 4C-0 4 1 4 1 4 1 4 1 5 1 5 1 5-0 5-0 5-0 5-0 4-0 4ZM-0-0C-0-0 1-0 1-0 1-0 1 1 1 1 1 1-0 1-0 1-0 1-0-0-0-0Z"/>
</svg>