<?xml version="1.0" encoding="utf-8"?>
<svg xmlns="http://www.w3.org/2000/svg"
	xmlns:xlink="http://www.w3.org/1999/xlink"
	width="26px" height="24px">
<path fill="rgb(123,127,129)" fill-rule="evenodd" d="M 22.15-0C 20.02-0 18.3 1.65 18.3 3.69 18.3 4.05 18.35 4.39 18.45 4.71 18.45 4.71 7.19 9.23 7.19 9.23 6.52 8.13 5.28 7.38 3.85 7.38 1.73 7.38-0 9.04-0 11.08-0 13.11 1.73 14.77 3.85 14.77 4.97 14.77 5.97 14.31 6.67 13.59 6.67 13.59 13.93 18.58 13.93 18.58 13.64 19.1 13.48 19.68 13.48 20.31 13.48 22.35 15.21 24 17.33 24 19.46 24 21.19 22.35 21.19 20.31 21.19 18.27 19.46 16.61 17.33 16.61 16.2 16.61 15.19 17.09 14.48 17.83 14.48 17.83 7.24 12.84 7.24 12.84 7.53 12.31 7.7 11.71 7.7 11.08 7.7 10.73 7.65 10.4 7.56 10.09 7.56 10.09 18.83 5.56 18.83 5.56 19.5 6.65 20.73 7.38 22.15 7.38 24.28 7.38 26 5.73 26 3.69 26 1.65 24.28-0 22.15-0ZM 17.33 17.54C 18.93 17.54 20.22 18.78 20.22 20.31 20.22 21.83 18.93 23.08 17.33 23.08 15.74 23.08 14.44 21.83 14.44 20.31 14.44 18.78 15.74 17.54 17.33 17.54ZM 3.85 13.84C 2.26 13.84 0.96 12.6 0.96 11.08 0.96 9.55 2.26 8.31 3.85 8.31 5.44 8.31 6.74 9.55 6.74 11.08 6.74 12.6 5.44 13.84 3.85 13.84ZM 22.15 6.46C 20.55 6.46 19.26 5.22 19.26 3.69 19.26 2.16 20.55 0.92 22.15 0.92 23.74 0.92 25.04 2.16 25.04 3.69 25.04 5.22 23.74 6.46 22.15 6.46Z"/>
</svg>