<?xml version="1.0" encoding="utf-8"?> <!-- Generated by Layerhero SVG Exporter: http://www.layerhero.com/photoshop-svg-exporter --><!DOCTYPE svg PUBLIC "-//W3C//DTD SVG 1.1//EN" "http://www.w3.org/Graphics/SVG/1.1/DTD/svg11.dtd"><svg version="1.1" baseProfile="full" xmlns="http://www.w3.org/2000/svg" xmlns:xlink="http://www.w3.org/1999/xlink" xmlns:ev="http://www.w3.org/2001/xml-events" width="24" height="24" viewBox="0 0 24 24"><g transform="scale(NaN)" ><path fill-rule="evenodd"  fill="rgb( 255, 255, 255 )" d="M23.996,22.739 L17.077,15.820 C18.468,14.147 19.305,11.999 19.305,9.654 C19.305,4.324 14.984,0.003 9.654,0.003 C4.325,0.003 0.003,4.324 0.003,9.654 C0.003,14.983 4.325,19.305 9.654,19.305 C11.999,19.305 14.147,18.467 15.820,17.077 L22.739,23.996 L23.996,22.739 ZM1.019,9.654 C1.019,4.892 4.892,1.019 9.654,1.019 C14.415,1.019 18.289,4.892 18.289,9.654 C18.289,14.415 14.415,18.289 9.654,18.289 C4.892,18.289 1.019,14.415 1.019,9.654 Z"/></g></svg>