<?xml version="1.0" encoding="utf-8"?> <!-- Generated by Layerhero SVG Exporter: http://www.layerhero.com/photoshop-svg-exporter --><!DOCTYPE svg PUBLIC "-//W3C//DTD SVG 1.1//EN" "http://www.w3.org/Graphics/SVG/1.1/DTD/svg11.dtd"><svg version="1.1" baseProfile="full" xmlns="http://www.w3.org/2000/svg" xmlns:xlink="http://www.w3.org/1999/xlink" xmlns:ev="http://www.w3.org/2001/xml-events" width="54" height="52" viewBox="0 0 54 52"><g transform="scale(NaN)" ><path fill-rule="evenodd"  fill="rgb( 255, 255, 255 )" d="M46.000,-0.000 C41.582,-0.000 38.000,3.583 38.000,8.000 C38.000,8.767 38.114,9.507 38.315,10.209 L14.928,20.012 C13.545,17.616 10.963,16.000 8.000,16.000 C3.583,16.000 -0.000,19.583 -0.000,24.000 C-0.000,28.418 3.583,32.000 8.000,32.000 C10.314,32.000 12.395,31.011 13.855,29.438 L28.926,40.269 C28.337,41.384 28.000,42.651 28.000,43.999 C28.000,48.418 31.583,52.000 36.000,52.000 C40.417,52.000 44.000,48.418 44.000,43.999 C44.000,39.582 40.417,36.000 36.000,36.000 C33.650,36.000 31.543,37.020 30.079,38.634 L15.029,27.820 C15.648,26.684 16.000,25.384 16.000,24.000 C16.000,23.257 15.891,22.540 15.701,21.856 L39.106,12.046 C40.496,14.409 43.060,16.001 46.000,16.001 C50.418,16.001 54.000,12.419 54.000,8.000 C54.000,3.583 50.418,-0.000 46.000,-0.000 Z"/></g></svg>