<?xml version="1.0" encoding="utf-8"?> <!-- Generated by Layerhero SVG Exporter: http://www.layerhero.com/photoshop-svg-exporter --><!DOCTYPE svg PUBLIC "-//W3C//DTD SVG 1.1//EN" "http://www.w3.org/Graphics/SVG/1.1/DTD/svg11.dtd"><svg version="1.1" baseProfile="full" xmlns="http://www.w3.org/2000/svg" xmlns:xlink="http://www.w3.org/1999/xlink" xmlns:ev="http://www.w3.org/2001/xml-events" width="24" height="24" viewBox="0 0 24 24"><g transform="scale(NaN)" ><path fill-rule="evenodd"  fill="rgb( 62, 31, 22 )" d="M11.998,24.000 C5.371,24.000 -0.000,18.627 -0.000,12.000 C-0.000,5.373 5.371,-0.000 11.998,-0.000 C18.627,-0.000 24.000,5.373 24.000,12.000 C24.000,18.627 18.627,24.000 11.998,24.000 ZM11.998,1.000 C5.934,1.000 1.000,5.935 1.000,12.000 C1.000,18.065 5.934,23.000 11.998,23.000 C18.064,23.000 23.000,18.065 23.000,12.000 C23.000,5.935 18.064,1.000 11.998,1.000 ZM11.998,18.987 C9.236,18.987 6.750,17.451 5.513,14.978 C5.389,14.733 5.489,14.432 5.736,14.309 C5.983,14.186 6.283,14.284 6.407,14.531 C7.475,16.663 9.617,17.987 11.998,17.987 C14.370,17.987 16.509,16.672 17.580,14.555 C17.706,14.309 18.006,14.209 18.252,14.334 C18.499,14.459 18.598,14.760 18.473,15.006 C17.230,17.462 14.749,18.987 11.998,18.987 ZM15.508,11.016 C14.675,11.016 14.000,10.341 14.000,9.508 C14.000,8.675 14.675,8.000 15.508,8.000 C16.340,8.000 17.016,8.675 17.016,9.508 C17.016,10.341 16.340,11.016 15.508,11.016 ZM8.491,11.016 C7.658,11.016 6.983,10.341 6.983,9.508 C6.983,8.675 7.658,8.000 8.491,8.000 C9.324,8.000 10.000,8.675 10.000,9.508 C10.000,10.341 9.324,11.016 8.491,11.016 Z"/></g></svg>