<?xml version="1.0" encoding="utf-8"?> <!-- Generated by Layerhero SVG Exporter: http://www.layerhero.com/photoshop-svg-exporter --><!DOCTYPE svg PUBLIC "-//W3C//DTD SVG 1.1//EN" "http://www.w3.org/Graphics/SVG/1.1/DTD/svg11.dtd"><svg version="1.1" baseProfile="full" xmlns="http://www.w3.org/2000/svg" xmlns:xlink="http://www.w3.org/1999/xlink" xmlns:ev="http://www.w3.org/2001/xml-events" width="18" height="17" viewBox="0 0 18 17"><g transform="scale(NaN)" ><path fill-rule="evenodd"  fill="rgb( 255, 255, 255 )" d="M13.373,16.834 L13.373,11.245 C13.373,10.845 13.373,10.459 13.373,10.088 C13.373,9.701 13.317,9.361 13.206,9.063 C13.095,8.767 12.909,8.525 12.649,8.339 C12.390,8.154 12.000,8.061 11.480,8.061 C11.124,8.061 10.816,8.132 10.556,8.273 C10.297,8.414 10.085,8.600 9.922,8.829 C9.758,9.060 9.636,9.323 9.554,9.620 C9.473,9.917 9.432,10.221 9.432,10.533 L9.432,16.834 L5.647,16.834 L5.647,5.278 L9.321,5.278 L9.321,6.859 L9.365,6.859 C9.543,6.562 9.766,6.295 10.033,6.057 C10.300,5.820 10.597,5.620 10.924,5.456 C11.250,5.293 11.592,5.166 11.948,5.078 C12.304,4.989 12.653,4.944 12.995,4.944 C13.959,4.944 14.720,5.100 15.277,5.411 C15.833,5.724 16.249,6.106 16.524,6.558 C16.798,7.011 16.973,7.497 17.047,8.017 C17.121,8.537 17.158,9.004 17.158,9.420 L17.158,16.834 L13.373,16.834 ZM0.303,5.278 L4.088,5.278 L4.088,16.834 L0.303,16.834 L0.303,5.278 ZM0.303,0.936 L4.088,0.936 L4.088,3.830 L0.303,3.830 L0.303,0.936 Z"/></g></svg>