<?xml version="1.0" encoding="utf-8"?> <!-- Generated by Layerhero SVG Exporter: http://www.layerhero.com/photoshop-svg-exporter --><!DOCTYPE svg PUBLIC "-//W3C//DTD SVG 1.1//EN" "http://www.w3.org/Graphics/SVG/1.1/DTD/svg11.dtd"><svg version="1.1" baseProfile="full" xmlns="http://www.w3.org/2000/svg" xmlns:xlink="http://www.w3.org/1999/xlink" xmlns:ev="http://www.w3.org/2001/xml-events" width="16" height="13" viewBox="0 0 16 13"><g transform="scale(NaN)" ><path fill-rule="evenodd"  fill="rgb( 255, 255, 255 )" d="M14.362,3.238 C14.369,3.378 14.372,3.519 14.372,3.662 C14.372,7.999 11.070,13.000 5.032,13.000 C3.178,13.000 1.453,12.457 -0.000,11.526 C0.258,11.556 0.519,11.571 0.783,11.571 C2.322,11.571 3.736,11.047 4.859,10.167 C3.424,10.140 2.211,9.191 1.794,7.888 C1.994,7.926 2.199,7.946 2.411,7.946 C2.711,7.946 3.001,7.906 3.275,7.831 C1.775,7.529 0.643,6.202 0.643,4.613 C0.643,4.599 0.643,4.585 0.643,4.572 C1.086,4.818 1.592,4.965 2.130,4.982 C1.249,4.394 0.670,3.388 0.670,2.250 C0.670,1.648 0.832,1.085 1.114,0.599 C2.732,2.586 5.152,3.892 7.880,4.029 C7.824,3.789 7.795,3.539 7.795,3.281 C7.795,1.469 9.265,-0.000 11.078,-0.000 C12.021,-0.000 12.875,0.398 13.474,1.035 C14.221,0.888 14.924,0.615 15.559,0.239 C15.312,1.006 14.793,1.649 14.115,2.054 C14.779,1.976 15.412,1.799 16.000,1.539 C15.561,2.197 15.004,2.775 14.362,3.238 Z"/></g></svg>