<?xml version="1.0" encoding="utf-8"?> <!-- Generated by Layerhero SVG Exporter: http://www.layerhero.com/photoshop-svg-exporter --><!DOCTYPE svg PUBLIC "-//W3C//DTD SVG 1.1//EN" "http://www.w3.org/Graphics/SVG/1.1/DTD/svg11.dtd"><svg version="1.1" baseProfile="full" xmlns="http://www.w3.org/2000/svg" xmlns:xlink="http://www.w3.org/1999/xlink" xmlns:ev="http://www.w3.org/2001/xml-events" width="16" height="16" viewBox="0 0 16 16"><g transform="scale(NaN)" ><path fill-rule="evenodd"  fill="rgb( 255, 255, 255 )" d="M13.822,3.482 L13.822,5.656 L12.733,5.656 L12.733,3.482 L10.557,3.482 L10.557,2.394 L12.733,2.394 L12.733,0.218 L13.822,0.218 L13.822,2.394 L15.999,2.394 L15.999,3.482 L13.822,3.482 ZM7.885,1.106 C8.759,1.606 9.223,2.637 9.223,3.773 C9.223,4.816 8.646,5.655 7.830,6.293 C7.032,6.915 6.882,7.176 6.882,7.704 C6.882,8.156 7.834,8.828 8.272,9.156 C9.795,10.299 10.104,11.017 10.104,12.445 C10.104,14.228 8.182,16.000 5.057,16.000 C2.315,16.000 0.001,14.887 0.001,13.103 C0.001,11.295 1.920,9.408 4.662,9.408 C4.961,9.408 5.234,9.400 5.518,9.400 C5.143,9.036 4.840,8.722 4.840,8.171 C4.840,7.844 4.943,7.531 5.090,7.251 C4.941,7.262 4.789,7.271 4.633,7.271 C2.380,7.271 1.069,5.690 1.069,3.706 C1.069,1.765 3.065,0.000 5.459,0.000 C6.693,0.000 10.178,0.000 10.178,0.000 L9.124,1.106 L7.885,1.106 ZM5.283,9.967 C3.388,9.945 1.782,11.162 1.782,12.574 C1.782,14.014 3.151,15.213 5.046,15.213 C7.711,15.213 8.639,14.088 8.639,12.646 C8.639,12.472 8.618,12.303 8.578,12.139 C8.369,11.324 7.541,10.877 6.511,10.162 C6.137,10.041 5.725,9.970 5.283,9.967 ZM7.328,3.844 C7.109,2.175 6.020,0.806 4.749,0.767 C3.477,0.730 2.623,2.007 2.844,3.676 C3.063,5.345 4.272,6.511 5.544,6.550 C6.816,6.587 7.547,5.513 7.328,3.844 Z"/></g></svg>