<?xml version="1.0" encoding="utf-8"?> <!-- Generated by Layerhero SVG Exporter: http://www.layerhero.com/photoshop-svg-exporter --><!DOCTYPE svg PUBLIC "-//W3C//DTD SVG 1.1//EN" "http://www.w3.org/Graphics/SVG/1.1/DTD/svg11.dtd"><svg version="1.1" baseProfile="full" xmlns="http://www.w3.org/2000/svg" xmlns:xlink="http://www.w3.org/1999/xlink" xmlns:ev="http://www.w3.org/2001/xml-events" width="16" height="16" viewBox="0 0 16 16"><g transform="scale(NaN)" ><path fill-rule="evenodd"  fill="rgb( 255, 255, 255 )" d="M14.154,6.768 L12.761,6.768 C12.863,7.162 12.923,7.574 12.923,8.000 C12.923,10.719 10.719,12.923 8.000,12.923 C5.281,12.923 3.077,10.719 3.077,8.000 C3.077,7.574 3.137,7.162 3.238,6.768 L1.845,6.768 L1.845,13.538 C1.845,13.878 2.121,14.153 2.461,14.153 L13.538,14.153 C13.878,14.153 14.154,13.878 14.154,13.538 L14.154,6.768 ZM14.154,2.461 C14.154,2.121 13.878,1.845 13.538,1.845 L11.692,1.845 C11.352,1.845 11.077,2.121 11.077,2.461 L11.077,4.307 C11.077,4.647 11.352,4.923 11.692,4.923 L13.538,4.923 C13.878,4.923 14.154,4.647 14.154,4.307 L14.154,2.461 ZM8.000,4.923 C6.300,4.923 4.923,6.300 4.923,8.000 C4.923,9.699 6.300,11.077 8.000,11.077 C9.699,11.077 11.077,9.699 11.077,8.000 C11.077,6.300 9.699,4.923 8.000,4.923 M14.154,16.000 L1.845,16.000 C0.826,16.000 -0.001,15.173 -0.001,14.153 L-0.001,1.845 C-0.001,0.826 0.826,-0.000 1.845,-0.000 L14.154,-0.000 C15.174,-0.000 16.000,0.826 16.000,1.845 L16.000,14.153 C16.000,15.173 15.174,16.000 14.154,16.000 "/></g></svg>