<?xml version="1.0" encoding="utf-8"?> <!-- Generated by Layerhero SVG Exporter: http://www.layerhero.com/photoshop-svg-exporter --><!DOCTYPE svg PUBLIC "-//W3C//DTD SVG 1.1//EN" "http://www.w3.org/Graphics/SVG/1.1/DTD/svg11.dtd"><svg version="1.1" baseProfile="full" xmlns="http://www.w3.org/2000/svg" xmlns:xlink="http://www.w3.org/1999/xlink" xmlns:ev="http://www.w3.org/2001/xml-events" width="30" height="19" viewBox="0 0 30 19"><g transform="scale(NaN)" ><path fill-rule="evenodd"  fill="rgb( 255, 255, 255 )" d="M25.683,18.164 L24.961,17.442 C27.404,15.623 28.996,12.725 28.996,9.455 C28.996,6.269 27.487,3.437 25.151,1.611 L25.869,0.893 C28.383,2.902 29.994,5.991 29.994,9.455 C29.994,13.005 28.303,16.160 25.683,18.164 ZM22.457,14.940 L21.730,14.214 C23.385,13.270 24.505,11.492 24.505,9.455 C24.505,7.504 23.477,5.793 21.936,4.821 L22.662,4.097 C24.376,5.263 25.503,7.227 25.503,9.455 C25.503,11.770 24.285,13.795 22.457,14.940 ZM3.998,13.033 L3.998,19.014 L3.000,19.014 L3.000,13.033 L0.006,13.033 L0.006,6.056 L11.628,6.056 L18.963,-0.014 L18.963,18.924 L11.674,13.033 L3.998,13.033 ZM4.996,7.053 L1.004,7.053 L1.004,12.037 L4.996,12.037 L4.996,7.053 ZM12.302,12.259 L17.965,16.835 L17.965,2.106 L12.264,6.823 L11.987,7.053 L11.628,7.053 L5.994,7.053 L5.994,12.037 L11.674,12.037 L12.027,12.037 L12.302,12.259 Z"/></g></svg>